<?xml version="1.0" encoding="UTF-8"?>
<svg width="22px" height="22px" viewBox="0 0 22 22" version="1.1" xmlns="http://www.w3.org/2000/svg" xmlns:xlink="http://www.w3.org/1999/xlink">
    <title>button-icon-phone</title>
    <g id="button-icon-phone" stroke="none" stroke-width="1" fill="none" fill-rule="evenodd">
        <path d="M17.01,14.38 C15.78,14.38 14.59,14.18 13.48,13.82 C13.13,13.7 12.74,13.79 12.47,14.06 L10.9,16.03 C8.07,14.68 5.42,12.13 4.01,9.2 L5.96,7.54 C6.23,7.26 6.31,6.87 6.2,6.52 C5.83,5.41 5.64,4.22 5.64,2.99 C5.64,2.45 5.19,2 4.65,2 L1.19,2 C0.65,2 0,2.24 0,2.99 C0,12.28 7.73,20 17.01,20 C17.72,20 18,19.37 18,18.82 L18,15.37 C18,14.83 17.55,14.38 17.01,14.38 Z" id="Path" fill="#000000" fill-rule="nonzero"></path>
    </g>
</svg>