<?xml version="1.0" encoding="UTF-8"?>
<svg width="326px" height="348px" viewBox="0 0 326 348" version="1.1" xmlns="http://www.w3.org/2000/svg" xmlns:xlink="http://www.w3.org/1999/xlink">
    <title>undraw_Online_messaging_re_qft3</title>
    <g id="Version-3.0" stroke="none" stroke-width="1" fill="none" fill-rule="evenodd">
        <g id="Index" transform="translate(-826.000000, -4628.000000)" fill-rule="nonzero">
            <g id="undraw_Online_messaging_re_qft3" transform="translate(989.000000, 4801.520408) scale(-1, 1) translate(-989.000000, -4801.520408) translate(826.000000, 4628.020408)">
                <path d="M326,77.7364582 L324.225895,77.7364582 L324.225895,29.1184141 C324.225904,21.6555411 321.262333,14.4983249 315.987134,9.2212718 C310.711936,3.94421872 303.557228,0.979591837 296.096964,0.979591837 L193.129024,0.979591837 C185.668759,0.979591837 178.514041,3.94417307 173.238825,9.22121033 C167.963609,14.4982476 165,21.6554556 165,29.1183298 L165,295.84077 C165,311.381396 177.593738,323.979592 193.128931,323.979592 L296.096827,323.979592 C311.632015,323.979592 324.225804,311.381498 324.225851,295.840876 L324.225851,112.343611 L326,112.343611 L326,77.7364582 Z" id="Path" fill="#26303C"></path>
                <path d="M297.062408,7.97959184 L283.665718,7.97959184 C284.916788,11.0544361 284.558921,14.5518315 282.7112,17.3080089 C280.863479,20.0641863 277.768366,21.7174733 274.455786,21.7177251 L215.660054,21.7177251 C212.347466,21.7174844 209.252343,20.064197 207.404619,17.3080118 C205.556895,14.5518266 205.199036,11.0544202 206.450123,7.97959184 L193.937592,7.97959184 C182.374093,7.97959184 173,17.3768027 173,28.9688725 L173,294.990267 C173,306.582342 182.374057,315.979592 193.937561,315.979592 L297.062408,315.979592 C302.6154,315.979592 307.940957,313.768233 311.867517,309.831975 C315.794078,305.895718 318,300.557005 318,294.990293 L318,294.990293 L318,28.9688903 C318,23.4021799 315.794077,18.0634689 311.867516,14.1272145 C307.940955,10.19096 302.615398,7.97959184 297.062408,7.97959184 L297.062408,7.97959184 Z" id="Path" fill="#FFFFFF"></path>
                <path d="M251.020735,297.979592 C232.115724,297.988493 215.786096,284.759912 211.871064,266.264554 C207.956031,247.769196 217.524848,229.058422 234.811944,221.406175 C252.09904,213.753927 272.383049,219.250149 283.442097,234.583161 C294.501144,249.916173 293.314838,270.8983 280.597971,284.887023 L288.950821,294.25055 L284.782573,296.018632 C278.334388,298.753796 272.024382,296.092341 268.482716,293.968274 C263.039682,296.606966 257.069635,297.978386 251.020735,297.979592 Z M251.020735,224.55742 C237.044648,224.561732 224.542946,233.250816 219.667365,246.349017 C214.791785,259.447219 218.56914,274.196012 229.1407,283.337931 C239.71226,292.479849 254.85162,294.089574 267.109124,287.375005 L268.893491,286.394534 L270.552556,287.575075 C272.448397,288.95393 274.601297,289.938936 276.884133,290.47193 L271.627998,284.579932 L273.932002,282.414759 C280.697862,276.112246 284.524069,267.270366 284.487113,258.023855 C284.465932,239.549531 269.494891,224.578344 251.020735,224.55742 L251.020735,224.55742 Z" id="Shape" fill="#E6E6E6"></path>
                <path d="M287,257.466292 C286.993499,241.02395 275.992975,226.61592 260.13275,222.276712 C244.272525,217.937505 227.468823,224.738563 219.092081,238.887336 C210.71534,253.036108 212.833952,271.038965 224.266494,282.856771 C235.699035,294.674577 253.622569,297.389267 268.042194,289.487017 C270.566249,291.282812 276.723786,294.864654 282.806668,292.284561 L275.48446,284.076937 C282.841966,277.183618 287.011597,267.54822 287,257.466292 L287,257.466292 Z" id="Path" fill="#FFFFFF"></path>
                <rect id="Rectangle" fill="#FCB143" x="232" y="250.979592" width="26" height="2"></rect>
                <rect id="Rectangle" fill="#E6E6E6" x="232" y="258.979592" width="46" height="2"></rect>
                <rect id="Rectangle" fill="#E6E6E6" x="232" y="266.979592" width="46" height="2"></rect>
                <path d="M251.020713,120.979592 C232.115704,120.988483 215.786084,107.759894 211.87106,89.2645356 C207.956036,70.7691773 217.52486,52.0584092 234.811958,44.4061685 C252.099055,36.7539278 272.383061,42.2501562 283.442103,57.5831706 C294.501146,72.9161851 293.314834,93.8983093 280.597966,107.887029 L288.95082,117.250575 L284.78257,119.018658 C278.334381,121.753824 272.024372,119.092353 268.482704,116.968286 C263.039664,119.606968 257.069615,120.978384 251.020713,120.979592 Z M251.020713,47.5573837 C237.044616,47.5616955 224.542905,56.2507848 219.667321,69.3489951 C214.791737,82.4472053 218.569094,97.1960089 229.140661,106.337934 C239.712228,115.479859 254.851598,117.089586 267.109111,110.375013 L268.893479,109.394555 L270.552545,110.575096 C272.448388,111.953947 274.601289,112.938949 276.884125,113.47194 L271.627987,107.579938 L273.931993,105.414777 C280.697855,99.1122487 284.524063,90.2703564 284.48711,81.0238328 C284.465924,62.5495018 269.494872,47.578314 251.020709,47.5573837 L251.020713,47.5573837 Z" id="Shape" fill="#E6E6E6"></path>
                <path d="M287,80.4663129 C286.993508,64.0239671 275.992987,49.6159279 260.13276,45.2767151 C244.272532,40.9375022 227.468825,47.7385595 219.092081,61.8873355 C210.715338,76.0361115 212.833954,94.0389732 224.266501,105.856779 C235.699048,117.674584 253.622588,120.389267 268.042213,112.487007 C270.566265,114.282787 276.723796,117.86467 282.806673,115.284535 L275.484471,107.076906 C282.841964,100.183601 287.011591,90.5482225 287,80.4663129 L287,80.4663129 Z" id="Path" fill="#FFFFFF"></path>
                <rect id="Rectangle" fill="#FCB143" x="232" y="73.9795918" width="26" height="2"></rect>
                <rect id="Rectangle" fill="#E6E6E6" x="232" y="81.9795918" width="46" height="2"></rect>
                <rect id="Rectangle" fill="#E6E6E6" x="232" y="89.9795918" width="46" height="2"></rect>
                <circle id="Oval" fill="#E6E6E6" cx="302" cy="117.979592" r="6"></circle>
                <circle id="Oval" fill="#E6E6E6" cx="302" cy="294.979592" r="6"></circle>
                <path d="M173.740142,212.19709 C169.523186,214.72599 162.010089,217.894762 154.332476,214.638273 L149.3695,212.533169 L159.31493,201.384913 C142.870008,183.25359 142.898313,155.594314 159.380308,137.496683 C175.862304,119.399053 203.399509,116.790733 222.986573,131.471907 C242.573637,146.153081 247.79505,173.315105 235.04715,194.211568 C222.299249,215.108031 195.75746,222.894544 173.740124,212.19709 L173.740142,212.19709 Z" id="Path" fill="#0A93A3"></path>
                <path d="M235.227714,169.479592 C235.226311,146.945896 217.769426,128.143221 195,126.150644 C196.285394,126.039652 197.585591,125.979592 198.900189,125.979592 C223.260384,125.994886 243,145.466019 243,169.479592 C243,193.493165 223.260384,212.964298 198.900189,212.979592 C197.587573,212.979592 196.289605,212.918756 195.006162,212.807993 C217.772925,210.812467 235.226287,192.010952 235.227714,169.479592 L235.227714,169.479592 Z" id="Path" fill="#000000" opacity="0.1"></path>
                <rect id="Rectangle" fill="#FFFFFF" x="170" y="159.979592" width="31" height="3"></rect>
                <rect id="Rectangle" fill="#FFFFFF" x="170" y="169.979592" width="54" height="3"></rect>
                <rect id="Rectangle" fill="#FFFFFF" x="170" y="179.979592" width="54" height="3"></rect>
                <path d="M0.44386423,346.979592 L169.556136,346.979592 C169.801275,346.979592 170,346.755734 170,346.479592 C170,346.203449 169.801275,345.979592 169.556136,345.979592 L0.44386423,345.979592 C0.198724785,345.979592 0,346.203449 0,346.479592 C0,346.755734 0.198724785,346.979592 0.44386423,346.979592 Z" id="Path" fill="#CCCCCC"></path>
                <path d="M81,155.979592 L81.6914702,152.779592 C81.6914702,152.779592 91.8620705,149.579592 93,155.979592 L81,155.979592 Z" id="Path" fill="#E6E6E6"></path>
                <polygon id="Path" fill="#9F616A" points="100.0014 339.979592 106.776782 339.979145 110 314.979592 100 314.980038"></polygon>
                <path d="M99,337.980085 L111.825846,337.979592 L111.826366,337.979592 C116.340388,337.979822 119.999685,341.448339 120,345.727087 L120,345.978856 L99.0003902,345.979592 L99,337.980085 Z" id="Path" fill="#26303C"></path>
                <polygon id="Path" fill="#9F616A" points="69.0013998 339.979592 75.7767824 339.979145 79 314.979592 69 314.980038"></polygon>
                <path d="M68,337.980085 L80.8258455,337.979592 L80.8263658,337.979592 C85.340388,337.979822 88.9996855,341.448339 89,345.727087 L89,345.978856 L68.0003902,345.979592 L68,337.980085 Z" id="Path" fill="#26303C"></path>
                <polygon id="Path" fill="#26303C" points="72 169.649551 64.6665683 168.979592 60 191.086461 60.6667159 211.183454 68.0001476 237.979592 78 231.950405 72.6667159 204.484308"></polygon>
                <polygon id="Path" fill="#26303C" points="67.3608278 235.646052 69.0146591 249.645963 70.5681365 282.312866 67 330.992696 79.7609943 330.313132 86.0159377 279.646406 89.8356278 256.312778 95.2087955 282.979592 98.567304 332.979592 111.664149 331.937888 111.664149 282.803835 112 246.979503 107.298534 232.979592"></polygon>
                <path d="M94.4506926,156.637933 C94.4506926,156.637933 89.8168946,149.970604 81.2112616,154.637737 L77.239431,159.971599 L64.6619718,169.305865 L67.3098588,200.642315 L64,239.979592 L111,239.312836 L103.056343,199.975587 L103.056343,157.971404 L94.4506926,156.637933 Z" id="Path" fill="#26303C"></path>
                <polygon id="Path" fill="#000000" opacity="0.25" points="68.9630956 179.979592 65 225.979592 70 201.049168"></polygon>
                <path d="M148.572408,218.716376 C147.176997,219.187788 145.643267,219.020385 144.383917,218.25921 C143.124568,217.498035 142.268962,216.221279 142.047328,214.772494 L131,212.057632 L131.02176,204.979592 L146.568575,209.031387 C149.096392,208.817775 151.38538,210.517947 151.896612,212.988848 C152.407844,215.45975 150.979726,217.920363 148.572408,218.716376 L148.572408,218.716376 Z" id="Path" fill="#9F616A"></path>
                <polygon id="Rectangle" fill="#E6E6E6" transform="translate(138.830748, 210.777803) rotate(-80.098450) translate(-138.830748, -210.777803) " points="133.487472 208.44012 144.174023 208.44012 144.174023 213.115487 133.487472 213.115487"></polygon>
                <circle id="Oval" fill="#9F616A" transform="translate(87.440788, 135.565942) rotate(-28.663190) translate(-87.440788, -135.565942) " cx="87.4407879" cy="135.565942" r="13.4122077"></circle>
                <path d="M88.5392811,147.606031 C81.840145,149.218381 75.0125016,145.478184 72.7476256,138.95533 C70.4827495,132.432476 73.5179828,125.250513 79.7678163,122.34417 C82.0909932,121.304713 84.6316,120.847651 87.1703426,121.012434 C91.1232462,121.22078 94.9652299,122.685413 98.9221285,122.577506 L99.4956495,123.501698 L101.657108,122.976186 L102.120268,124.696524 L102.689602,124.676766 C103.709447,126.576723 102.068569,129.296874 99.9164911,129.273852 C99.0644488,129.264738 98.2588121,128.908877 97.4256346,128.729897 C96.592457,128.550917 95.6112813,128.595524 95.0367594,129.226358 C94.2901034,130.046196 94.6151354,131.325517 94.7708175,132.424648 C94.9264995,133.52378 94.5376658,135.004226 93.4308841,135.040091 C92.8655105,135.05842 92.3277958,134.651958 91.7722567,134.758827 C91.1251913,134.883297 90.798022,135.666604 90.8924942,136.320297 C91.0527457,136.961707 91.3140962,137.573363 91.6666824,138.13218 C93.2710934,141.342889 91.9163428,145.710385 88.7786394,147.442768" id="Path" fill="#26303C"></path>
                <path d="M100.271055,160.551991 L103.473384,157.985572 C103.473384,157.985572 109.936404,157.540751 109.81969,164.323738 L120.160988,196.348424 L140,203.305949 L137.326733,216.979592 L109.257426,206.393546 L95,182.998564 L100.271055,160.551991 Z" id="Path" fill="#26303C"></path>
            </g>
        </g>
    </g>
</svg>