<?xml version="1.0" encoding="UTF-8"?>
<svg width="84px" height="80px" viewBox="0 0 84 80" version="1.1" xmlns="http://www.w3.org/2000/svg" xmlns:xlink="http://www.w3.org/1999/xlink">
    <title>Program graphic/story time</title>
    <g id="Program-graphic/story-time" stroke="none" stroke-width="1" fill="none" fill-rule="evenodd">
        <g id="014-chicken" fill-rule="nonzero">
            <path d="M2.84888894,26.8829032 C2.84888894,26.8829032 12.8275804,30.0738201 17.1579443,24.0667422 C21.4883083,18.0596641 27.3245664,-4.57887794 51.4243827,0.827004104 C75.5235868,6.23288599 80.7128001,45.0237662 72.1347127,60.8605526 C61.5597851,80.3838613 32.0320162,84.8888646 16.4049973,74.7521494 C0.777978332,64.6148238 -3.55238573,39.4604136 2.84888894,26.8829032 Z" id="Path" fill="#FFE14D"></path>
            <path d="M32,52.0374563 C32,52.0374563 30.6968957,43.2136193 24.3584202,40.7276121 C18.0205408,38.2416049 9.69462262,37.0116267 7.74890796,38.9623484 C5.80319329,40.9136903 7.40733492,53.0447606 15.4280429,55.2069915 C23.4487508,57.3686021 30.5097161,54.7095419 32,52.0374563 Z" id="Path" fill="#FF8E1D"></path>
            <path d="M65,32.6874803 C65,32.6874803 60.5281044,27.0645523 59.1995559,27.0016297 C57.8710074,26.9387071 55.4669085,28.7091739 55.0874113,30.3537954 C54.7079141,31.9978003 55.5934075,33.6424219 57.1749541,33.9582682 C58.7565006,34.2747316 65,32.6874803 65,32.6874803 L65,32.6874803 Z" id="Path" fill="#FF8E1D"></path>
            <g id="Group" transform="translate(45.000000, 16.000000)" fill="#162F4D">
                <path d="M4.01963496,8.18009566 C4.01963496,6.69222252 3.11988393,5.48524949 2.01043975,5.48524949 C0.900373381,5.48524949 0.00062219469,6.69222252 0.00062219469,8.18009566 C0.00062219469,9.66861007 0.900373381,10.8749417 2.01043975,10.8749417 C3.11988393,10.8749417 4.01963496,9.66861007 4.01963496,8.18009566 Z" id="Path"></path>
                <path d="M17.9900442,2.79040349 C17.9900442,1.30188907 17.0902931,0.0955573284 15.980849,0.0955573284 C14.8707827,0.0955573284 13.9710315,1.30188907 13.9710315,2.79040349 C13.9710315,4.27891791 14.8707827,5.48524949 15.980849,5.48524949 C17.0902931,5.48524949 17.9900442,4.27891791 17.9900442,2.79040349 Z" id="Path"></path>
            </g>
        </g>
    </g>
</svg>