<?xml version="1.0" encoding="UTF-8"?>
<svg width="84px" height="80px" viewBox="0 0 84 80" version="1.1" xmlns="http://www.w3.org/2000/svg" xmlns:xlink="http://www.w3.org/1999/xlink">
    <title>Program graphic/person</title>
    <defs>
        <linearGradient x1="50.0000715%" y1="-6.14423548%" x2="50.0000715%" y2="107.595259%" id="linearGradient-1">
            <stop stop-color="#43B36B" offset="0%"></stop>
            <stop stop-color="#46B570" offset="19.6%"></stop>
            <stop stop-color="#4DBC80" offset="44.33%"></stop>
            <stop stop-color="#5AC79A" offset="71.81%"></stop>
            <stop stop-color="#6AD6BC" offset="100%"></stop>
        </linearGradient>
        <linearGradient x1="-6.09559981e-15%" y1="49.9997636%" x2="100%" y2="49.9997636%" id="linearGradient-2">
            <stop stop-color="#64CD89" offset="0%"></stop>
            <stop stop-color="#66CF8E" offset="22.18%"></stop>
            <stop stop-color="#6DD39E" offset="50.16%"></stop>
            <stop stop-color="#77DBB8" offset="81.13%"></stop>
            <stop stop-color="#7FE1CB" offset="100%"></stop>
        </linearGradient>
        <linearGradient x1="50.0005543%" y1="4.05061621%" x2="50.0005543%" y2="117.79011%" id="linearGradient-3">
            <stop stop-color="#68D0E8" offset="0%"></stop>
            <stop stop-color="#A7E7F5" offset="100%"></stop>
        </linearGradient>
        <linearGradient x1="0.000428937864%" y1="49.9997636%" x2="100%" y2="49.9997636%" id="linearGradient-4">
            <stop stop-color="#8FD5E6" offset="0%"></stop>
            <stop stop-color="#B0E4F0" offset="100%"></stop>
        </linearGradient>
        <linearGradient x1="50.0000715%" y1="4.04971215%" x2="50.0000715%" y2="117.790278%" id="linearGradient-5">
            <stop stop-color="#F4C128" offset="0%"></stop>
            <stop stop-color="#F9DD89" offset="100%"></stop>
        </linearGradient>
        <linearGradient x1="0%" y1="50.0002364%" x2="100%" y2="50.0002364%" id="linearGradient-6">
            <stop stop-color="#F4D84A" offset="0%"></stop>
            <stop stop-color="#F9EA9D" offset="100%"></stop>
        </linearGradient>
    </defs>
    <g id="Program-graphic/person" stroke="none" stroke-width="1" fill="none" fill-rule="evenodd">
        <g id="contacts" transform="translate(0.000000, 10.000000)" fill-rule="nonzero">
            <path d="M33.4617825,49 C35.7602986,49 37.4527147,46.8306449 36.8918991,44.5932801 C34.9336911,36.7825161 27.8896172,31 19.500025,31 C11.1104329,31 4.06652789,36.7823465 2.10815096,44.5932801 C1.54716637,46.8304753 3.23975151,49 5.53826759,49 L33.4617825,49 Z" id="Path" fill="url(#linearGradient-1)"></path>
            <path d="M35.8916021,44.6927724 C34.7416772,40.1657513 31.8201079,36.34375 27.9068937,34 C25.217292,35.1661907 22.1496691,35.7960786 18.8927051,35.7960786 C16.8748843,35.7960786 14.9299251,35.5542069 13.1024367,35.0928713 C12.0689913,34.8320518 10.9833366,35.2442882 10.4020958,36.1354899 C9.47703411,37.5539323 10.2238244,39.459743 11.8682501,39.8765927 C13.4973103,40.2896529 15.1921278,40.5580514 16.9305631,40.6730558 C17.1098258,43.6445518 17.8797468,46.4577109 19.1849777,49 L32.5445937,49 C34.8031387,49.0001648 36.4462426,46.876373 35.8916021,44.6927724 L35.8916021,44.6927724 Z" id="Path" fill="#00A663"></path>
            <path d="M39,18.5105315 C39,7.94910855 30.2694857,0 19.4999164,0 C8.73051434,0 0,7.94910855 0,18.5105315 C0,29.0719544 8.73051434,36 19.5000836,36 C30.2696529,36 39,29.0719544 39,18.5105315 Z" id="Path" fill="url(#linearGradient-2)"></path>
            <g id="Group" transform="translate(2.000000, 11.000000)">
                <ellipse id="Oval" fill="#EFB1D2" cx="2.65292876" cy="9.94587703" rx="2.52688884" ry="1.98520599"></ellipse>
                <ellipse id="Oval" fill="#EFB1D2" cx="32.3900591" cy="9.94587703" rx="2.52688884" ry="1.98520599"></ellipse>
                <ellipse id="Oval" fill="#FFFFFF" cx="6.98514907" cy="5.04728244" rx="5.01080569" ry="4.89859459"></ellipse>
                <ellipse id="Oval" fill="#FFFFFF" cx="28.0578388" cy="5.04728244" rx="5.01080569" ry="4.89859459"></ellipse>
                <path d="M8.64024773,6.77232614 C8.19242537,6.77249144 7.7581375,6.540115 7.5272053,6.12928007 C7.36817507,5.84645892 7.09511678,5.81569592 6.98514907,5.81569592 C6.87518136,5.81569592 6.60212307,5.84645892 6.44309284,6.12928007 C6.10557656,6.72965479 5.33427994,6.94863444 4.7198142,6.61867643 C4.10568683,6.28855303 3.88169106,5.5343633 4.21920734,4.93398859 C4.77378297,3.94758781 5.83370254,3.33480866 6.98514907,3.33480866 C8.13659561,3.33480866 9.19634599,3.94758781 9.7510908,4.93398859 C10.0886071,5.5343633 9.86461132,6.28855303 9.25048394,6.61867643 C9.05643322,6.72287369 8.84698703,6.77232614 8.64024773,6.77232614 Z" id="Path" fill="#353544"></path>
                <path d="M29.7131066,6.77232614 C29.2651151,6.77249144 28.8309964,6.540115 28.6000642,6.12928007 C28.441034,5.84629353 28.1678065,5.81569592 28.0578388,5.81569592 C27.9480403,5.81586131 27.674982,5.84645892 27.5159517,6.12911468 C27.1784355,6.72965479 26.4066313,6.94863444 25.7928423,6.61867643 C25.1787149,6.28871842 24.95455,5.5345287 25.2920662,4.93415398 C25.8464727,3.9477532 26.9063923,3.33497405 28.0578388,3.33480866 C29.2092853,3.33480866 30.2690357,3.94758781 30.8239497,4.93398859 C31.161466,5.5343633 30.9374702,6.28855303 30.3233428,6.61867643 C30.1292921,6.72287369 29.9198459,6.77232614 29.7131066,6.77232614 L29.7131066,6.77232614 Z" id="Path" fill="#353544"></path>
                <path d="M19.4960911,11.6305649 L15.547066,11.6305649 C14.4460354,11.6305649 13.5534359,10.7579541 13.5534359,9.68157984 C13.5534359,8.60520556 14.4460354,7.73259481 15.547066,7.73259481 L19.4960911,7.73259481 C20.5971217,7.73259481 21.4897211,8.60520556 21.4897211,9.68157984 C21.4897211,10.7579541 20.5971217,11.6305649 19.4960911,11.6305649 Z" id="Path" fill="#353544"></path>
            </g>
            <path d="M78.4617825,49 C80.7602986,49 82.4527147,46.8306449 81.8918991,44.5932801 C79.9336911,36.7825161 72.8896172,31 64.500025,31 C56.1104329,31 49.0665279,36.7823465 47.108151,44.5932801 C46.5471664,46.8304753 48.2397515,49 50.5382676,49 L78.4617825,49 Z" id="Path" fill="url(#linearGradient-3)"></path>
            <path d="M48.108397,44.6927724 C49.2583206,40.1657513 52.1798865,36.34375 56.0930962,34 C58.7826948,35.1661907 61.8503141,35.7960786 65.1072744,35.7960786 C67.1250929,35.7960786 69.0700498,35.5542069 70.8975361,35.0928713 C71.9309804,34.8320518 73.0166338,35.2442882 73.5978739,36.1354899 C74.5229345,37.5539323 73.7763103,39.459743 72.1317213,39.8765927 C70.5026629,40.2896529 68.8078474,40.5580514 67.0695793,40.6730558 C66.8903168,43.6445518 66.1203967,46.4577109 64.8151674,49 L51.455732,49 C49.1968592,49.0001648 47.5537572,46.876373 48.108397,44.6927724 Z" id="Path" fill="#15C5D9"></path>
            <path d="M84,18.5105315 C84,7.94910855 75.2695231,0 64.5,0 C53.7304769,0 45,7.94910855 45,18.5105315 C45,29.0719544 53.7304769,36 64.5,36 C75.2695231,36 84,29.0719544 84,18.5105315 Z" id="Path" fill="url(#linearGradient-4)"></path>
            <g id="Group" transform="translate(47.000000, 11.000000)">
                <ellipse id="Oval" fill="#EA9CC5" cx="2.63042767" cy="9.94587703" rx="2.52688884" ry="1.98520599"></ellipse>
                <ellipse id="Oval" fill="#EA9CC5" cx="32.367558" cy="9.94587703" rx="2.52688884" ry="1.98520599"></ellipse>
                <ellipse id="Oval" fill="#FFFFFF" cx="6.96264799" cy="5.04728244" rx="5.01080569" ry="4.89859459"></ellipse>
                <circle id="Oval" fill="#353544" transform="translate(4.930130, 5.050408) rotate(-45.000000) translate(-4.930130, -5.050408) " cx="4.93013033" cy="5.05040769" r="2.95269376"></circle>
                <ellipse id="Oval" fill="#FFFFFF" cx="28.0353377" cy="5.04728244" rx="5.01080569" ry="4.89859459"></ellipse>
                <g transform="translate(14.718755, 1.488532)" fill="#353544">
                    <ellipse id="Oval" transform="translate(11.304656, 3.582249) rotate(-76.700416) translate(-11.304656, -3.582249) " cx="11.3046556" cy="3.58224888" rx="2.9225441" ry="2.98233062"></ellipse>
                    <path d="M4.06440664,4.74858361 L1.49606843,4.74858361 C0.987340873,4.74858361 0.538841789,5.07539916 0.39537622,5.55272187 C-0.056675667,7.05613955 -0.57606163,10.1420325 2.78032212,10.1420325 C6.1365367,10.1420325 5.61731991,7.05597416 5.16526803,5.55272187 C5.02163328,5.07556455 4.57313419,4.74858361 4.06440664,4.74858361 L4.06440664,4.74858361 Z" id="Path"></path>
                </g>
            </g>
            <path d="M56.4617825,70 C58.7602986,70 60.4527147,67.8306244 59.8918991,65.5932385 C57.9336911,57.782401 50.8896172,52 42.500025,52 C34.1104329,52 27.0665279,57.7825706 25.108151,65.5932385 C24.5471664,67.8306244 26.2397515,70 28.5382676,70 L56.4617825,70 Z" id="Path" fill="url(#linearGradient-5)"></path>
            <path d="M62,39.5105315 C62,28.9491085 53.2695231,21 42.5,21 C31.7304769,21 23,28.9491085 23,39.5105315 C23,50.0719544 31.7304769,57 42.5,57 C53.2695231,57 62,50.0719544 62,39.5105315 Z" id="Path" fill="url(#linearGradient-6)"></path>
            <g id="Group" transform="translate(25.000000, 31.000000)">
                <ellipse id="Oval" fill="#EA9CC5" cx="2.49593929" cy="11.8026162" rx="2.46638103" ry="2.06493313"></ellipse>
                <ellipse id="Oval" fill="#EA9CC5" cx="31.5209969" cy="11.8026162" rx="2.46638103" ry="2.06493313"></ellipse>
                <ellipse id="Oval" fill="#FFFFFF" transform="translate(6.739458, 6.717991) rotate(-67.485887) translate(-6.739458, -6.717991) " cx="6.73945799" cy="6.71799149" rx="5.06704538" ry="4.92249075"></ellipse>
                <ellipse id="Oval" fill="#FFFFFF" transform="translate(27.314273, 6.715309) rotate(-67.485887) translate(-27.314273, -6.715309) " cx="27.3142731" cy="6.71530913" rx="5.06704538" ry="4.92249075"></ellipse>
                <g transform="translate(2.302599, 2.924591)" fill="#353544">
                    <g id="Oval">
                        <ellipse transform="translate(4.420252, 3.776285) rotate(-79.105817) translate(-4.420252, -3.776285) " cx="4.42025174" cy="3.77628496" rx="3.03255825" ry="2.91938278"></ellipse>
                        <ellipse transform="translate(24.997086, 3.797584) rotate(-73.141601) translate(-24.997086, -3.797584) " cx="24.9970859" cy="3.79758407" rx="3.02662238" ry="2.92525003"></ellipse>
                    </g>
                    <path d="M14.7057864,9.04008218 C13.8393495,9.04008218 12.9727475,8.69876523 12.2659913,8.0159593 C11.9316031,7.69287803 11.9117875,7.14873211 12.2217364,6.80036173 C12.5320156,6.45199136 13.0541566,6.43169126 13.3885447,6.75425642 C14.1641601,7.50346777 15.2472475,7.50346777 16.0228629,6.75425642 C16.3569208,6.43169126 16.8797223,6.45181933 17.1896712,6.80036173 C17.4996201,7.14873211 17.4799696,7.69305006 17.1454164,8.0159593 C16.4388253,8.69876523 15.5722233,9.04008218 14.7057864,9.04008218 Z" id="Path"></path>
                </g>
            </g>
        </g>
    </g>
</svg>