<?xml version="1.0" encoding="UTF-8"?>
<svg width="84px" height="80px" viewBox="0 0 84 80" version="1.1" xmlns="http://www.w3.org/2000/svg" xmlns:xlink="http://www.w3.org/1999/xlink">
    <title>Program graphic/horse</title>
    <g id="Program-graphic/horse" stroke="none" stroke-width="1" fill="none" fill-rule="evenodd">
        <g id="Program/lessons" fill-rule="nonzero">
            <path d="M22.8684251,17.0393071 C22.8684251,17.0393071 19.8499789,14.7008661 14.7080911,17.0393071 C9.56620318,19.3783509 11.3919154,27.4329808 6.84609198,29.1402416 C4.6748439,29.9558927 3.06456225,29.8739056 1.97470233,29.5658512 C1.28423585,29.370529 0.664570891,30.0384828 0.932043384,30.7022165 C2.28635027,34.0600706 5.62552133,40.0348807 11.5407801,37.3063982 C19.5891629,33.5946734 22.8684251,17.0393071 22.8684251,17.0393071 Z" id="Path" fill="#2B5D99"></path>
            <path d="M61.8684251,8.0242291 L63.0019662,0 C63.0019662,0 68.1103919,3.23022987 69.6896094,10.3445352 C71.2688271,17.4594904 61.8684251,8.0242291 61.8684251,8.0242291 Z" id="Path" fill="#BD4B1E"></path>
            <path d="M78.1079427,24.2260337 C76.6596925,21.814229 68.7333076,9.52688076 65.3033063,8.24507406 C61.8733051,6.96387946 52.8037927,10.9592723 51.2794165,14.3511019 C50.2080826,16.7353605 48.3494949,26.9726749 48.3494949,26.9726749 L33.9722072,18.7627454 C28.8173029,15.8196093 22.4450018,15.6622911 17.2548196,18.5436018 C11.452535,21.7646463 7.86842505,27.8296613 7.86842505,34.398462 L7.86842505,40.2204602 L10.6671376,59.674051 C10.8014413,60.768545 11.4482026,61.7369396 12.4137027,62.2878594 C12.9899083,62.6171871 14.8194073,62.9036654 15.8969302,62.2878594 L16.6866598,61.8373294 C17.9405722,61.1211337 18.7699122,59.8564666 18.9215452,58.4320329 C19.212433,55.7025313 19.3355962,52.6896119 21.5160174,51.8160981 C23.168508,51.154382 24.7170218,51.0625622 26.7748987,52.2311243 C30.0142756,54.1532223 37.1026559,60.4851274 38.0811531,63.1607613 C38.8906879,71.7422557 38.5886596,79.7079441 43.902624,79.9901374 C49.5545133,80.2906948 48.9244626,73.6918997 49.4858143,64.2852498 C49.6919115,64.2185274 52.9325261,62.2829623 54.4432862,62.1054438 C54.769452,65.1214238 55.8636856,71.6700239 58.6648738,71.81816 C63.3215555,72.0636255 63.9881219,66.1387889 63.9881219,56.776825 C65.2352261,55.4974666 66.5077058,44.7171901 66.1598783,40.3685963 C66.1604972,40.3685963 70.6327435,33.8408086 74.9007493,30.2977821 C79.169374,26.7547555 79.5555741,26.6384503 78.1079427,24.2260337 L78.1079427,24.2260337 Z" id="Path" fill="#BD4B1E"></path>
            <path d="M67.8684251,16.3132223 L73.5392743,23.5060645 C73.9348294,24.0079322 74.6541876,24.1473397 75.2196167,23.8317447 C75.8586375,23.4746237 76.0616278,22.6749576 75.6660726,22.0722419 L71.6823118,16 L67.8684251,16.3132223 Z" id="Path" fill="#FFF5AE"></path>
            <path d="M42.9542558,18.996202 C42.9542558,18.996202 45.5733812,21.9227473 47.3959176,20.6350167 C49.2178375,19.347286 49.7875343,13.7869764 51.4386684,9.80717892 C53.0904191,5.8267477 58.3292864,3.31022299 61.5748317,3.01744162 C64.8209934,2.72466026 68.8637443,6.17783183 70.8003434,8.87053238 C72.7363259,11.5625992 75.8684251,13.3186533 75.8684251,13.3186533 C75.8684251,13.3186533 74.3307369,16.5379799 69.4907807,16.2451986 C64.6502078,15.9524174 59.0124293,10.4504106 59.0124293,10.4504106 C59.0124293,10.4504106 53.4319905,12.0309226 52.8055706,17.6495348 C52.3974113,21.3112021 52.2019635,24.6826229 50.425052,26.3170016 C48.6487573,27.9513801 42.0429875,27.07367 42.9542558,18.996202 Z" id="Path" fill="#2B5D99"></path>
            <path d="M59.8684251,13.3245981 C59.8684251,13.3245981 57.4277909,9.34820219 55.758286,7.41553383 C54.0880856,5.48286532 53.0603771,5 53.0603771,5 C53.0603771,5 50.9201287,10.6863427 52.3754699,14.551076 C53.8315062,18.4164129 59.8684251,13.3245981 59.8684251,13.3245981 Z" id="Path" fill="#BD4B1E"></path>
            <path d="M54.353453,6 C54.353453,6 56.0656395,9.01644831 56.7326995,11.0920853 C57.4004193,13.1683584 55.4441059,14.4812958 54.353453,13.8337326 C53.2621401,13.1861696 54.353453,6 54.353453,6 Z" id="Path" fill="#EF5F26"></path>
            <path d="M78.9268,38.8227875 C82.3807186,35.6477467 80.4646507,28.5148829 78.9994224,25 C77.3564146,25.0089098 75.0644534,25.4709421 72.4157715,27.2675227 C67.84405,30.3687401 66.1539828,36.2281511 67.1393227,40.40108 C67.1393227,40.40108 74.9197898,42.5063186 78.9268,38.8227875 L78.9268,38.8227875 Z" id="Path" fill="#FFF5AE"></path>
            <path d="M63.8684251,21.499733 C63.8684251,22.3286452 63.1971898,23 62.3684251,23 C61.5401943,23 60.8684251,22.3286452 60.8684251,21.499733 C60.8684251,20.6713548 61.5401943,20 62.3684251,20 C63.1971898,20 63.8684251,20.6713548 63.8684251,21.499733 L63.8684251,21.499733 Z" id="Path" fill="#162F4D"></path>
            <g id="Group" transform="translate(9.868425, 35.000000)" fill="#A8431B">
                <path d="M49.2052441,3.00864254 C45.9817815,1.50828079 43.3700528,0.0828457947 43.3700528,0.0828457947 C43.3700528,0.0828457947 50.3007469,9.95428769 56.6783837,11.6270418 C56.8843756,9.22755954 56.9617787,6.9322437 56.8394319,5.41969875 C56.8394319,5.41969875 52.4299549,4.50900413 49.2052441,3.00864254 L49.2052441,3.00864254 Z" id="Path"></path>
                <path d="M9.19598177,23.3954088 C9.32020122,22.244705 9.41570656,21.0446594 9.6497884,19.9761922 C8.13293822,20.685864 5.96190758,21.221925 3.433824,20.8253617 C1.96191768,20.5944899 0.826464829,19.7203449 0.0255929042,18.8370626 L0.87016002,24.6320041 C1.00561548,25.7211826 1.65854758,26.6842649 2.63232789,27.2331183 C3.21285085,27.5602374 5.0580397,27.8453244 6.14480346,27.2331183 L6.94130581,26.7841672 C8.2059717,26.0714498 9.04242418,24.8129246 9.19598177,23.3954088 L9.19598177,23.3954088 Z" id="Path"></path>
                <path d="M53.282637,27.9178146 C51.362542,29.7258022 48.578529,30.4214631 46.0367127,29.6301639 C45.7882738,29.5528005 45.5591857,29.4650814 45.3500728,29.3700526 C45.9037541,32.5547423 47.0604305,36.6007848 49.2795259,36.7165251 C53.0728997,36.9138932 54.2408119,33.1042049 54.5497998,26.7238605 L53.282637,27.9178146 Z" id="Path"></path>
                <path d="M29.1740836,35.8070489 C29.7115355,40.8947553 30.729011,44.6569291 34.3912989,44.8488146 C39.2102631,45.1022253 39.5005245,40.4464134 39.8176273,33.344214 L39.1422232,33.9947973 C36.9936644,36.0635053 33.9318744,37.0265878 30.9768256,36.4283924 C30.2833192,36.2876763 29.659101,36.0799527 29.1740836,35.8070489 L29.1740836,35.8070489 Z" id="Path"></path>
            </g>
        </g>
    </g>
</svg>