<?xml version="1.0" encoding="UTF-8"?>
<svg width="335px" height="324px" viewBox="0 0 335 324" version="1.1" xmlns="http://www.w3.org/2000/svg" xmlns:xlink="http://www.w3.org/1999/xlink">
    <title>Group 8</title>
    <g id="V3" stroke="none" stroke-width="1" fill="none" fill-rule="evenodd">
        <g id="Home-Copy" transform="translate(-817.000000, -4628.000000)" fill-rule="nonzero">
            <g id="Group-8" transform="translate(817.000000, 4628.000000)">
                <g id="undraw_Just_saying_re_kw9c" transform="translate(145.000000, 64.527939)">
                    <path d="M112.630475,256.175719 L103.992529,256.175719 C101.892627,256.173307 100.190927,254.48308 100.188498,252.397337 L100.188498,180.890203 C100.190927,178.80446 101.892627,177.114233 103.992529,177.111821 L112.630475,177.111821 C114.730376,177.114233 116.432076,178.80446 116.434505,180.890203 L116.434505,252.397337 C116.432076,254.48308 114.730376,256.173307 112.630475,256.175719 Z" id="Path" fill="#D38678"></path>
                    <path d="M125.94409,160.553569 L119.202538,155.136974 C118.475708,154.552983 117.548748,154.284272 116.625582,154.389955 C115.702415,154.495639 114.858664,154.967059 114.279947,155.700509 L69.5421817,212.399296 C68.9634529,213.132744 68.6971627,214.068143 68.8018921,214.999716 C68.9066215,215.931288 69.3737916,216.782723 70.1006298,217.366714 L70.2835874,217.513717 L92.0464638,252.359329 C92.5418305,253.152499 93.3291531,253.714608 94.2352293,253.921999 C95.1413055,254.12939 96.0919141,253.965075 96.877932,253.4652 L104.168351,248.828725 C105.805133,247.787758 106.295768,245.604955 105.264223,243.953259 L87.3051492,215.198128 L126.502538,165.521004 C127.081272,164.787555 127.347566,163.852151 127.242837,162.920575 C127.138107,161.988998 126.670933,161.13756 125.94409,160.553569 Z" id="Path" fill="#D38678"></path>
                    <path d="M118.994482,203.105431 L77.0502469,203.105431 C74.27832,203.102053 72.0320516,200.800729 72.028754,197.960863 L72.028754,187.671725 C72.0320548,184.83186 74.2783213,182.530538 77.0502469,182.527157 L118.994482,182.527157 C121.766408,182.530535 124.012677,184.831859 124.015974,187.671725 L124.015974,197.960863 C124.01268,200.80073 121.76641,203.102056 118.994482,203.105431 L118.994482,203.105431 Z" id="Path" fill="#FA9801"></path>
                    <rect id="Rectangle" fill="#3F3D56" x="0.546325879" y="256.175719" width="188.453674" height="2.16613419"></rect>
                    <circle id="Oval" fill="#D38678" cx="103.979233" cy="62.8482428" r="30.8674121"></circle>
                    <path d="M136.433821,189.025559 L71.5295596,189.025559 C69.4136257,189.023131 67.6989326,187.321658 67.6964856,185.222038 L80.6757281,119.329582 C80.7090649,107.570145 90.3225707,98.0532484 102.173423,98.0479233 L106.385423,98.0479233 C118.252739,98.0611675 127.869771,107.604051 127.883118,119.37987 L140.261981,185.168321 C140.273829,186.184771 139.876335,187.163926 139.157552,187.88822 C138.438769,188.612514 137.458234,189.021953 136.433821,189.025559 Z" id="Path" fill="#FCB143"></path>
                    <path d="M79.5748112,73.1373802 C77.507435,73.0813099 74.9338997,73.0116647 72.9544481,71.6122093 C71.7599072,70.7343727 71.0275877,69.3911982 70.9536203,67.9424165 C70.8808986,66.9111998 71.3112371,65.9064447 72.1167476,65.226744 C73.1522676,64.3809385 74.6634234,64.1829124 76.2918017,64.6456603 L74.6041964,52.7231883 L75.8436443,52.5591054 L77.8267659,66.5757257 L76.7924651,66.1165257 C75.5926999,65.5844287 73.9466154,65.3138019 72.9239186,66.1498705 C72.4147464,66.5926629 72.1483294,67.2396849 72.2034468,67.8996128 C72.2647855,68.9775643 72.8081018,69.9764202 73.6920072,70.636246 C75.2324671,71.7252264 77.283969,71.8657074 79.6102236,71.9288613 L79.5748112,73.1373802 Z" id="Path" fill="#2F2E41"></path>
                    <rect id="Rectangle" fill="#2F2E41" x="82.8594249" y="52.5591054" width="6.49840256" height="2.16613419"></rect>
                    <path d="M76.3246352,101.722194 L79.9201854,101.723881 C83.2316916,101.73107 85.9158119,104.41519 85.923001,107.726697 L85.9542963,174.399779 C85.9614811,177.713484 83.2764508,180.401037 79.9627427,180.402592 C79.9608653,180.402593 79.958988,180.402593 79.9571132,180.396962 L76.361563,180.395275 C73.0500568,180.388086 70.3659365,177.703966 70.3587473,174.39246 L70.3274521,107.719378 C70.3202672,104.405672 73.0052976,101.71812 76.3190057,101.716565 C76.3208831,101.716564 76.3227604,101.716564 76.3246352,101.722194 Z" id="Rectangle" fill="#D38678" transform="translate(78.140874, 141.059578) rotate(-129.804250) translate(-78.140874, -141.059578) "></path>
                    <path d="M114.006973,122.897361 L91.6863778,144.648746 C90.2403611,146.057878 87.9699737,146.053742 86.5288482,144.639351 L76.4309793,134.72885 C75.6232846,133.936141 75.2041612,132.8142 75.2886564,131.670994 C75.3731515,130.527788 75.9523865,129.483444 76.8673644,128.82463 L103.338611,109.764453 C104.924496,108.413662 107.27692,108.632064 108.600449,110.252968 L114.485824,117.495737 C115.80629,119.123548 115.592036,121.540417 114.006973,122.897361 L114.006973,122.897361 Z" id="Path" fill="#FCB143"></path>
                    <path d="M105.618724,30.5455832 C104.321068,24.5599322 105.922995,18.2338773 109.394424,13.2751789 C112.931328,8.22294799 118.469564,4.844745 124.342818,3.30252619 C135.727902,0.31298675 147.816063,4.48708854 156.248095,12.4528521 C165.347135,21.0487404 169.406268,33.5462389 168.822054,45.9526687 C168.229709,58.5317409 162.865631,70.3418771 154.816202,79.8393358 C150.853358,84.491944 146.345185,88.6415434 141.390729,92.1969655 C138.946986,93.9583025 136.087594,96.2524082 132.943203,96.3038639 C130.664449,96.341141 127.752349,94.8512147 128.352202,92.1353232 C128.558702,91.2003458 129.209266,90.184707 130.233675,90.0625672 C131.324301,89.9325536 131.337297,88.1877254 130.233675,88.3192905 C127.554198,88.6387111 125.993274,91.5674857 126.719095,94.1116935 C127.521504,96.9243542 130.753958,98.2635046 133.437598,98.0197131 C136.839706,97.7106476 139.762782,95.5151707 142.449779,93.5668904 C145.134498,91.6254753 147.698391,89.5193033 150.126946,87.2602963 C159.764258,78.2718918 167.211104,66.5655155 169.670124,53.4333015 C172.147224,40.2045449 169.705823,25.8421587 161.173936,15.2309204 C153.432204,5.60242536 140.98434,-0.614541063 128.572901,0.762368624 C122.050936,1.48590982 115.686811,4.16984704 110.940314,8.80557431 C106.238965,13.3795004 103.538724,19.6563681 103.4377,26.2458376 C103.437014,27.8477679 103.609821,29.4449755 103.953044,31.0090101 C104.190534,32.1044561 105.856202,31.640884 105.618747,30.5455832 L105.618724,30.5455832 Z" id="Path" fill="#2F2E41"></path>
                    <path d="M110.649746,32.2208022 C110.180083,27.8426215 111.7123,23.4878571 114.800989,20.4224162 C117.889677,17.3569753 122.188282,15.9248055 126.447221,16.542231 C127.542842,16.683574 127.532801,14.9206265 126.447221,14.7805813 C121.729136,14.1639104 116.993775,15.7825599 113.583552,19.1776634 C110.17333,22.5727669 108.460023,27.3741941 108.929334,32.2208022 C109.034216,33.3393382 110.755677,33.3505071 110.649746,32.2208022 L110.649746,32.2208022 Z" id="Path" fill="#2F2E41"></path>
                    <path d="M102.707141,24.399361 C101.471293,24.3981413 100.417605,25.41201 100.220828,26.7917172 C100.02405,28.1714245 100.742441,29.5084906 101.915964,29.9466988 L101.916523,29.9466988 L109.880385,32.9204327 C110.733998,33.2390901 111.673103,33.0185642 112.343947,32.3419249 C113.014791,31.6652856 113.315457,30.6353306 113.132688,29.6400339 C112.949919,28.6447372 112.311482,27.8353081 111.457869,27.5166507 L103.493464,24.5429232 C103.2398,24.4479722 102.97434,24.3995065 102.707141,24.399361 L102.707141,24.399361 Z" id="Path" fill="#2F2E41"></path>
                </g>
                <g id="Group-5">
                    <path d="M20.3107246,111.477984 L7.39644223,125.954083 C18.124967,130.504745 28.9850352,124.187268 33.4367743,121.019976 C63.2714239,137.413675 100.71056,127.798445 118.952705,99.0575211 C137.194849,70.3165971 129.958064,32.347319 102.422932,12.3306767 C74.8877998,-7.6859657 36.5364291,-2.85696112 14.8233375,23.3607607 C-6.88975402,49.5784825 -4.48735917,88.1564819 20.3107246,111.478005 L20.3107246,111.477984 Z" id="Path" fill="#FCD0A3"></path>
                    <path d="M29.8720204,53.9997898 C43.1862303,53.854159 56.4987472,53.6041042 69.812358,53.4141033 C74.2508065,53.3507624 78.6893471,53.2952378 83.1279796,53.2475296 C86.9524496,53.2056988 86.9622275,46.9582753 83.1279796,47.0002102 C69.8137697,47.145841 56.5012476,47.3958958 43.1876368,47.5858967 C38.7491883,47.6492376 34.3106495,47.7047622 29.8720204,47.7524704 C26.0475504,47.7943012 26.0377725,54.0417247 29.8720204,53.9997898 L29.8720204,53.9997898 Z" id="Path" fill="#FFFFFF"></path>
                    <path d="M30.8390815,66.9997919 L84.0325124,66.414105 L99.1609165,66.2475312 C102.941534,66.2059083 102.951185,59.9584758 99.1609165,60.0002081 L45.9674908,60.585895 L30.8390815,60.7524688 C27.0584636,60.7940917 27.0488185,67.0415242 30.8390815,66.9997919 L30.8390815,66.9997919 Z" id="Path" fill="#FFFFFF"></path>
                    <path d="M30.8390815,80.9997919 L84.0325124,80.414105 L99.1609165,80.2475312 C102.941534,80.2059083 102.951185,73.9584758 99.1609165,74.0002081 L45.9674908,74.585895 L30.8390815,74.7524633 C27.0584636,74.7940917 27.0488185,81.0415242 30.8390815,80.9997919 L30.8390815,80.9997919 Z" id="Path" fill="#FFFFFF"></path>
                </g>
                <g id="Group-7" transform="translate(64.000000, 33.000000)">
                    <path d="M129,64.4765262 C128.988524,35.4208768 109.549248,9.9600994 81.5222735,2.29217646 C53.4952989,-5.37574649 23.8010791,6.64255751 8.99833914,31.6451851 C-5.80440085,56.6478126 -2.06055118,88.4610858 18.1421627,109.344608 C38.3448766,130.22813 70.0179771,135.025317 95.4992333,121.061059 C99.9595752,124.234438 110.84063,130.564056 121.589887,126.004653 L108.650649,111.500749 C121.652237,99.3194122 129.020477,82.2925072 129,64.4765262 L129,64.4765262 Z" id="Path" fill="#0A93A3"></path>
                    <path d="M30.8720204,53.9997898 C44.1862306,53.8541644 57.4987478,53.6041042 70.8123589,53.4141033 C75.2508076,53.3507587 79.6893465,53.295236 84.1279757,53.2475351 C87.952451,53.2057043 87.9622288,46.9582753 84.1279757,47.0002102 C70.8137707,47.145841 57.5012483,47.3958958 44.1876371,47.5858967 C39.7491885,47.6492376 35.3106496,47.7047622 30.8720204,47.7524704 C27.0475503,47.7943012 27.0377725,54.0417247 30.8720204,53.9997898 L30.8720204,53.9997898 Z" id="Path" fill="#FFFFFF"></path>
                    <path d="M30.8390816,67.99977 L84.0325139,67.4140849 L99.1609184,67.2475117 C102.941536,67.2058889 102.951182,60.9584759 99.1609184,61.0002081 L45.9674861,61.5859151 L30.8390816,61.7524883 C27.0584636,61.7941111 27.0488184,68.0415241 30.8390816,67.9997919 L30.8390816,67.99977 Z" id="Path" fill="#FFFFFF"></path>
                    <path d="M30.8390816,81.9997919 L84.0325139,81.414105 L99.1609184,81.2475312 C102.941536,81.2059083 102.951182,74.9584758 99.1609184,75.0002081 L45.9674861,75.585895 L30.8390816,75.7524688 C27.0584636,75.7940917 27.0488184,82.0415242 30.8390816,81.9997919 Z" id="Path" fill="#FFFFFF"></path>
                </g>
            </g>
        </g>
    </g>
</svg>