<?xml version="1.0" encoding="UTF-8"?>
<svg width="339px" height="337px" viewBox="0 0 339 337" version="1.1" xmlns="http://www.w3.org/2000/svg" xmlns:xlink="http://www.w3.org/1999/xlink">
    <title>volunteer</title>
    <g id="V3" stroke="none" stroke-width="1" fill="none" fill-rule="evenodd">
        <g id="Home-Copy" transform="translate(-128.000000, -2377.000000)" fill-rule="nonzero">
            <g id="volunteer" transform="translate(128.000000, 2377.000000)">
                <polygon id="Path" fill="#FCB143" points="69.5 193 143.5 193 143.5 337 69.5 337"></polygon>
                <polygon id="Path" fill="#FA9801" points="69.5 193 143.5 193 143.5 215 69.5 215"></polygon>
                <polygon id="Path" fill="#FA9801" points="68.5 193 89.5 193 89.5 337 68.5 337"></polygon>
                <path d="M193.598518,74.6241861 L183.284603,84.9301769 C167.060644,101.14167 154.90124,120.959668 147.799964,142.761968 L141.211946,163 L72.7009035,163 C69.1034857,163 65.7742271,161.862351 63.0471736,159.930719 L63.0412438,159.930719 L7.57117038,120.732534 C0.201076044,115.526869 -1.67406149,105.466447 3.20880719,97.9789018 C3.32542678,97.7978524 3.44797618,97.616803 3.57118444,97.4423372 C8.90340091,89.9027813 19.3398656,88.1166466 26.8852188,93.4447662 L55.3324915,113.548493 C54.1471885,100.447099 51.2969267,87.527413 46.8410043,75.1028149 L32.9876516,36.5109806 C29.8692307,27.8219256 34.3837923,18.2513245 43.0795285,15.1346412 C51.7752647,12.0186162 61.3532247,16.5349761 64.4663747,25.2246895 L80.0538673,68.630463 L80.0538673,16.7107586 C80.0538673,7.62471156 87.307342,0.230653581 96.3423951,0.00878575608 C96.3773151,0.00286050261 96.4181649,0.00286050261 96.4530849,0.00286050261 C105.826796,-0.172263656 113.500628,7.71754053 113.500628,17.0899748 L113.500628,69.7746953 L129.28051,20.6029918 C132.083992,11.8724599 141.399064,7.04074491 150.14158,9.74266049 C150.200219,9.76043625 150.25227,9.77755365 150.310909,9.79532941 C159.106134,12.613775 163.953424,22.0211024 161.132811,30.80957 L147.431657,73.485879 L169.945826,50.9890083 C176.481135,44.4646459 187.069139,44.4646459 193.598518,50.9890083 C200.133827,57.5140291 200.133827,68.0998236 193.598518,74.6241861 Z" id="Path" fill="#D38678"></path>
                <g id="Group" transform="translate(0.500000, 0.000000)" fill="#C86E57">
                    <path d="M193.391605,50.8443817 C188.934224,46.4098015 173.102109,62.5607328 163.282673,73.5267176 C158.954626,78.3597863 151.325939,78.2455573 147.154939,73.2772519 L169.70315,50.8443817 C176.24834,44.3385802 186.852354,44.3385802 193.391605,50.8443817 L193.391605,50.8443817 Z" id="Path"></path>
                    <path d="M149.869619,9.71471756 C143.22215,8.11222901 131.802544,45.2570076 126.322374,64.6490229 C124.730122,70.2836641 118.106408,72.7645344 113.172605,69.5759695 L128.976347,20.5441527 C131.784068,11.8391145 141.113224,7.02048855 149.869619,9.71471756 Z" id="Path"></path>
                    <path d="M79.6752721,68.4356489 L79.6752721,16.6629924 C79.6752721,7.60279389 86.9397143,0.229770992 95.9884286,0.00853435115 C91.0242721,0.583618321 90.5828231,40.4206565 90.6837823,60.8472977 C90.7114966,66.5213282 85.0069728,70.4510687 79.6752721,68.4356489 L79.6752721,68.4356489 Z" id="Path"></path>
                    <path d="M147.523803,142.355603 L140.925823,162.536061 L112.03632,171.857542 L72.3111905,162.536061 C68.7083333,162.536061 65.3740408,161.401649 62.6428639,159.475511 L62.6369252,159.475511 L7.08297959,120.38884 C-0.298258503,115.197985 -2.17623129,105.166183 2.71402041,97.6999389 C-1.51504762,107.790168 90.6362721,169.448885 147.523803,142.355603 Z" id="Path"></path>
                </g>
                <polygon id="Path" fill="#FCB143" points="66.5 163 145.5 163 145.5 206 66.5 206"></polygon>
                <polygon id="Path" fill="#FA9801" points="66.5 163 93.5 163 93.5 206 66.5 206"></polygon>
                <path d="M108.56691,121.889002 C95.9231688,105.70202 80.0919354,102.121556 68.939319,101.99082 C60.8037057,80.552053 37.6978294,18.0772281 43.5265928,15 C34.8716431,18.1094194 30.378597,27.659732 33.4828119,36.3310243 L47.2694864,74.8403919 C51.7041727,87.2379945 54.5408506,100.130949 55.7205047,113.20457 C55.7205047,113.20457 58.2325975,111.849906 60.5355131,111.438646 C69.9655328,109.755499 87.8642756,109.662867 101.650294,127.311598 C102.515855,128.420556 103.806983,129 105.111225,129 C106.05744,129 107.010868,128.694511 107.814135,128.064481 C109.724925,126.567255 110.061313,123.802743 108.56691,121.889002 L108.56691,121.889002 Z" id="Path" fill="#C86E57"></path>
                <polygon id="Path" fill="#0A93A3" points="208.5 296 282.5 296 282.5 337 208.5 337"></polygon>
                <polygon id="Path" fill="#046B74" points="208.5 296 282.5 296 282.5 318 208.5 318"></polygon>
                <polygon id="Path" fill="#046B74" points="207.5 296 228.5 296 228.5 337 207.5 337"></polygon>
                <path d="M333.598518,177.624186 L323.284603,187.930177 C307.060644,204.14167 294.90124,223.959668 287.799964,245.761968 L281.211946,266 L212.700904,266 C209.103486,266 205.774227,264.862351 203.047174,262.930719 L203.041244,262.930719 L147.57117,223.732534 C140.201076,218.526869 138.325939,208.466447 143.208807,200.978902 C143.325427,200.797852 143.447976,200.616803 143.571184,200.442337 C148.903401,192.902781 159.339866,191.116647 166.885219,196.444766 L195.332491,216.548493 C194.147188,203.447099 191.296927,190.527413 186.841004,178.102815 L172.98831,139.511639 C169.86989,130.822584 174.383792,121.251983 183.080187,118.1353 C191.775924,115.019275 201.353884,119.535634 204.467034,128.225348 L220.054526,171.631121 L220.054526,119.710759 C220.054526,110.624712 227.308001,103.230654 236.342395,103.008786 C236.377315,103.002861 236.418165,103.002861 236.453085,103.002861 C245.826796,102.827736 253.500628,110.717541 253.500628,120.089975 L253.500628,172.774695 L269.28051,123.602992 C272.083992,114.87246 281.399064,110.040745 290.14158,112.74266 C290.200219,112.760436 290.25227,112.777554 290.310909,112.795329 C299.106134,115.613775 303.953424,125.021102 301.132811,133.80957 L287.431657,176.485879 L309.945826,153.989008 C316.481135,147.464646 327.069139,147.464646 333.598518,153.989008 C340.133827,160.514029 340.133827,171.099824 333.598518,177.624186 L333.598518,177.624186 Z" id="Path" fill="#FCD0A3"></path>
                <path d="M333.5,153.861515 C329.065435,149.443145 313.314357,165.535038 303.545183,176.460937 C299.239289,181.276338 291.64965,181.162527 287.5,176.212383 L309.932796,153.861515 C316.444484,147.379495 326.99422,147.379495 333.5,153.861515 Z" id="Path" fill="#FFB983"></path>
                <path d="M289.5,112.746912 C282.797646,111.144818 271.283756,148.280457 265.758339,167.667701 C264.152941,173.300956 257.474538,175.781216 252.5,172.593435 L268.434224,123.573682 C271.265792,114.87013 280.671974,110.053346 289.5,112.746912 Z" id="Path" fill="#FFB983"></path>
                <path d="M219.5,171.464735 L219.5,119.663614 C219.5,110.598435 226.625278,103.221358 235.5,103 C230.630941,103.5754 230.197949,143.43434 230.296974,163.871555 C230.324158,169.549362 224.728915,173.481263 219.5,171.464735 Z" id="Path" fill="#FFB983"></path>
                <path d="M287.5,245.604956 L280.925398,265.762498 L246.597938,281 L212.553872,265.762498 C208.96378,265.762498 205.641302,264.629374 202.919802,262.705424 L202.913884,262.705424 L147.556771,223.663137 C140.201685,218.478176 138.330366,208.457766 143.203291,201 C138.989207,211.078771 230.814027,272.667473 287.5,245.604956 L287.5,245.604956 Z" id="Path" fill="#FFB983"></path>
                <polygon id="Path" fill="#0A93A3" points="205.5 266 284.5 266 284.5 309 205.5 309"></polygon>
                <polygon id="Path" fill="#046B74" points="205.5 266 232.5 266 232.5 309 205.5 309"></polygon>
                <path d="M247.56691,224.889659 C234.923169,208.702677 219.091935,205.122213 207.939319,204.991477 C199.80305,183.55271 176.697829,121.077885 182.526593,118 C173.871643,121.109419 169.378597,130.659732 172.482812,139.331024 L186.269486,177.840392 C190.704173,190.237995 193.540851,203.130949 194.720505,216.20457 C194.720505,216.20457 197.232597,214.849906 199.535513,214.438646 C208.965533,212.755499 226.864276,212.662867 240.650294,230.311598 C241.515855,231.420556 242.806983,232 244.111225,232 C245.05744,232 246.010868,231.694511 246.814135,231.064481 C248.724925,229.567255 249.061313,226.802743 247.56691,224.889659 L247.56691,224.889659 Z" id="Path" fill="#FFB983"></path>
            </g>
        </g>
    </g>
</svg>