<?xml version="1.0" encoding="UTF-8"?>
<svg width="84px" height="80px" viewBox="0 0 84 80" version="1.1" xmlns="http://www.w3.org/2000/svg" xmlns:xlink="http://www.w3.org/1999/xlink">
    <title>Program graphic/after school</title>
    <g id="Program-graphic/after-school" stroke="none" stroke-width="1" fill="none" fill-rule="evenodd">
        <g id="038-harvest" transform="translate(6.213260, 0.000000)" fill-rule="nonzero">
            <polygon id="Path" fill="#F8DB8F" points="39.2271128 28 0.786739865 50.2285322 0.786739865 62.6145259 3.19634442 64 39.1847009 43.1919408 67.3771352 59.3415243 69.7867399 57.9560502 69.7867399 45.5712634"></polygon>
            <polygon id="Path" fill="#F7BD69" points="39.7867399 30 67.7867399 46.4197804 67.7867399 59 39.7867399 42.5875784"></polygon>
            <polygon id="Path" fill="#FFF5AE" points="69.7867399 44.8584826 39.2271128 27 0.786739865 49.591879 3.19634442 51 39.1750068 29.8548795 67.3771352 46.2727364"></polygon>
            <polygon id="Path" fill="#F8DB8F" points="39.2271128 13 0.786739865 35.2285321 0.786739865 47.6145259 3.19634442 49 39.1847009 28.1919408 67.3771352 44.3421277 69.7867399 42.9566536 69.7867399 30.5718668"></polygon>
            <polygon id="Path" fill="#F7BD69" points="39.7867399 16 67.7867399 32.4191672 67.7867399 45 39.7867399 28.5869652"></polygon>
            <polygon id="Path" fill="#FFF5AE" points="69.7867399 30.858939 39.2271128 13 0.786739865 35.591843 3.19634442 37 39.1750068 15.8543391 67.3771352 32.2726158"></polygon>
            <path d="M44.8059923,30.2318194 C44.8059923,30.2318194 49.1977656,21.2062253 48.7554376,13.6654659 C48.5379803,9.9521718 45.6875593,5.48739933 42.8501118,1.91183604 C40.3580013,-1.22818378 35.2959404,-0.348639923 34.067183,3.44076843 C31.7591699,10.5592745 29.3288369,20.7380615 31.8672808,26.5257743 C36.0551877,36.0714831 44.8059923,30.2318194 44.8059923,30.2318194 Z" id="Path" fill="#1B6D40"></path>
            <path d="M40.7866657,16.9420761 C40.7726098,10.8040374 38.9232464,5 38.9232464,5 C38.9232464,5 39.2565735,12.5609087 38.7284709,18.5031958 C38.2003683,24.4460945 36.7867399,34 36.7867399,34 L38.9968728,33.6280718 C38.9968728,33.6280718 40.8000523,23.0807266 40.7866657,16.9420761 Z" id="Path" fill="#A2BF26"></path>
            <path d="M39.0171204,40.9390551 C39.0171204,40.9390551 36.5112116,35.8268868 38.6518988,28.5249953 C40.7925859,21.2231038 45.9533517,17.0499052 49.8307779,14.9916499 C53.7087997,12.9333944 58.2779424,12.2664064 59.6315859,13.9682514 C60.2702768,14.7709286 59.0268551,30.8492017 54.2199907,37.8194082 C49.4125306,44.7896148 39.0171204,40.9390551 39.0171204,40.9390551 Z" id="Path" fill="#5B9617"></path>
            <path d="M33.9023111,45 C33.9023111,45 39.1076505,39.4089074 38.7710958,32.7499347 C38.4345412,26.0915672 35.1531331,19.4507455 31.7247788,16.4945633 C27.5504342,12.8952332 21.7650123,12.2478498 20.8987395,13.7701082 C20.0330593,15.2923664 18.9979166,25.4901661 20.7073536,32.3548494 C22.4167905,39.2195325 29.8073652,44.3689525 33.9023111,45 Z" id="Path" fill="#5B9617"></path>
            <path d="M33.2924669,55 C33.2924669,55 34.5980113,38.4017617 32.9655042,31.9326605 C30.6779182,22.8681604 25.7867399,19 25.7867399,19 C25.7867399,19 30.4282271,26.9764645 31.3001278,33.614282 C32.1714517,40.2520995 31.3381869,53.3485505 31.3381869,53.3485505 C31.3381869,53.3485505 31.5457823,54.7259899 33.2924669,55 Z" id="Path" fill="#D8D836"></path>
            <path d="M32.7867399,55 C32.7867399,55 36.9251632,39.9675559 41.494375,31.9739418 C46.0629659,23.9790917 52.7867399,19 52.7867399,19 C52.7867399,19 44.3143624,30.4734783 41.5049274,37.2626429 C38.6961129,44.0518076 35.4521651,53.9469564 35.4521651,53.9469564 C35.4521651,53.9469564 35.3019479,54.8047173 32.7867399,55 L32.7867399,55 Z" id="Path" fill="#D8D836"></path>
            <path d="M27.6059557,43.0239208 C27.6059557,43.0239208 28.5099041,37.8218865 26.2751591,35.4377198 C24.0404141,33.0529589 21.995445,32.318638 18.3022037,32.0619821 C14.6089625,31.8053262 12.0868931,32.3703257 11.8072544,33.3024855 C11.5276157,34.2346453 14.1034844,41.6479601 19.7411904,43.3251348 C25.3794874,45.0029038 27.6059557,43.0239208 27.6059557,43.0239208 L27.6059557,43.0239208 Z" id="Path" fill="#249155"></path>
            <path d="M32.7867399,53.7938362 C32.7867399,53.7938362 30.7012791,43.5923894 25.9067252,39.4286968 C21.1121714,35.2650043 12.7867399,33 12.7867399,33 C12.7867399,33 23.0408122,38.3352889 25.7511211,42.0261564 C28.4620377,45.7164081 30.6915538,53.1461645 30.6915538,53.1461645 C30.6915538,53.1461645 31.0161345,54.5055365 32.7867399,53.7938362 Z" id="Path" fill="#D8D836"></path>
            <path d="M45.7835427,39.2412263 C45.7835427,39.2412263 48.2874995,36.0109428 51.8313673,35.2219331 C53.5092827,34.8488209 55.6215457,35.0029734 57.381164,35.2684935 C59.330021,35.5629565 60.3933616,37.8267975 59.4207354,39.6187429 C58.2102092,41.8479784 56.1039539,44.4748647 52.6237662,45.5300236 C46.0761115,47.5151317 43.0699216,42.7892531 45.7835427,39.2412263 Z" id="Path" fill="#1B6D40"></path>
            <path d="M57.7867399,37 C57.7867399,37 48.0076709,37.6635271 42.4850103,42.3197403 C36.961733,46.975347 32.7867399,54 32.7867399,54 L34.9787808,53.9466267 C34.9787808,53.9466267 37.1455338,49.3092155 42.7107523,44.3715794 C48.2772043,39.4339434 57.7867399,37 57.7867399,37 L57.7867399,37 Z" id="Path" fill="#D8D836"></path>
            <path d="M33.6137115,45.5906703 C33.6137115,45.5906703 30.7440601,44.379658 30.7872219,38.0692893 C30.8297674,31.7589206 33.7962248,27.4842146 36.8107773,23.7646329 C38.0791213,22.1994043 40.4437783,20.3368317 42.7578742,18.7048398 C45.3691708,16.8632853 48.9522274,18.8581481 48.7808128,22.0547505 C48.423802,28.7335538 47.5648797,38.0606349 45.5097554,41.7746528 C42.1511408,47.8445501 33.6137115,45.5906703 33.6137115,45.5906703 L33.6137115,45.5906703 Z" id="Path" fill="#31BA55"></path>
            <path d="M31.7867399,54.7226001 C31.7867399,54.7226001 33.6942668,41.8930543 37.3952772,33.5316296 C41.0962875,25.1702048 45.7867399,21 45.7867399,21 C45.7867399,21 38.2509247,34.1033563 36.432594,42.9580111 C35.2335405,48.7958036 34.0574234,54.8146944 34.0574234,54.8146944 C34.0574234,54.8146944 33.8229645,55.2875277 31.7867399,54.7226001 Z" id="Path" fill="#D8D836"></path>
            <path d="M34.4912034,39.13304 C35.9140062,44.7865202 32.0445783,49.318326 26.212514,50.6974142 C20.3798292,52.0765025 14.4981251,48.6110395 13.0753223,42.9581607 C11.6525196,37.3046805 15.6541136,32.6760439 21.4867983,31.2969554 C27.3188626,29.9178672 33.0684005,33.4795598 34.4912034,39.13304 L34.4912034,39.13304 Z" id="Path" fill="#BF0025"></path>
            <path d="M17.7124024,41.9873699 C17.4077007,41.9514017 17.1083761,41.8346625 16.8413139,41.6339972 C15.7467776,40.8079884 15.1690393,39.6374413 14.8667273,38.5634405 C14.4939158,37.2389236 15.473741,35.9245032 16.7797762,36.0033812 C17.5785727,36.0513389 18.2722171,36.6198904 18.4896905,37.4326477 C18.6020119,37.8516468 18.7669093,38.2517151 19.0064885,38.4321877 C19.8435222,39.0638415 20.0376948,40.2918119 19.4396429,41.1758747 C19.0321791,41.7785015 18.3624328,42.0656169 17.7124024,41.9873699 Z" id="Path" fill="#EA2642"></path>
            <path d="M26.9245249,34.0143201 C26.214849,33.7681938 25.2304598,33.6992784 24.5968869,33.8488002 C24.7726044,33.4193097 24.8307645,33.3793142 25.1265143,32.9941265 C25.8844506,32.00716 27.3483505,31.2312468 27.3483505,31.2312468 C27.3483505,31.2312468 25.1463134,31.1918666 23.8915421,31.878559 C23.5716621,32.0533087 23.2845744,32.3369692 23.0333726,32.6630867 C23.0896764,32.3080495 23.1373181,31.9591654 23.153405,31.7068859 C23.2022842,30.9358952 23.1911471,30 23.1911471,30 C23.1911471,30 21.8819281,30.7322257 21.627014,31.7813392 C21.5304932,32.1800638 21.5292558,32.6261677 21.5657605,33.0267383 C21.2013322,32.8753706 20.8270046,32.7646137 20.4786632,32.7061587 C18.7375753,32.4138837 16.7867399,33.620518 16.7867399,33.620518 C16.7867399,33.620518 18.7691302,33.7331207 19.8989193,34.2622924 C20.3400691,34.4690385 20.693979,34.4905744 21.0491263,34.7914638 C20.4174097,34.9483694 19.1508826,35.6233707 18.6348671,36.1666946 C17.3089427,37.5634615 17.8070151,40.3163841 17.8070151,40.3163841 C17.8070151,40.3163841 18.8514204,38.4519774 20.6283943,36.6306427 C21.0194276,36.2300721 21.4983195,35.9396431 21.9388507,35.732897 C21.8930652,36.1371594 21.8745034,36.6423336 21.9444192,37.1930413 C22.1145682,38.5338144 23.9954877,41 23.9954877,41 C23.9954877,41 24.3493975,38.8211669 24.1705865,37.2853387 C24.0790154,36.4965038 23.8049208,35.7944286 23.5592876,35.2972534 C24.0814903,35.2757173 24.7224879,35.3040219 25.2180854,35.3575543 C27.7548518,35.6319852 29.7867399,37.4102477 29.7867399,37.4102477 C29.7867399,37.4102477 28.7485219,34.6468647 26.9245249,34.0143201 Z" id="Path" fill="#447111"></path>
            <path d="M22.2299292,33.9791733 C22.2240767,33.9808936 22.2176388,33.9820404 22.2112009,33.9837607 C21.8179057,34.0669063 21.4298778,33.8226303 21.3438446,33.4372937 C21.3362361,33.4040354 20.7901879,31.0644913 19.2158364,30.366642 C18.8488781,30.2037914 18.6855903,29.7800357 18.8518043,29.420503 C19.0180184,29.0603967 19.4505261,28.9009865 19.8174846,29.0638371 C22.0683973,30.0610105 22.7426176,33.0083773 22.7701249,33.1333822 C22.8538171,33.5129848 22.613275,33.888 22.2299292,33.9791733 Z" id="Path" fill="#5B9617"></path>
            <polygon id="Path" fill="#F7BD69" points="67.3771352 44 31.3366728 64.8500805 3.2011915 48.6485109 0.786739865 50.045479 0.786739865 62.4370808 31.3069843 79.9963777 31.3069843 80 31.3100137 79.9981889 31.3130432 80 31.3130432 79.9963777 69.7867399 57.7777033 69.7867399 45.3861014"></polygon>
            <polygon id="Path" fill="#F8DB8F" points="69.7867399 45 30.7867399 67.4701757 30.7867399 80 69.7867399 57.5298243"></polygon>
            <polygon id="Path" fill="#FFF5AE" points="69.7867399 44.4090932 67.3771352 43 31.3366728 64.195929 3.19634442 47.7397331 0.786739865 49.1488263 31.3130432 67 31.3154667 66.9987726"></polygon>
            <path d="M67.3771352,30 L31.3366728,50.8500806 L3.2011915,34.6491147 L0.786739865,36.045479 L0.786739865,48.4370809 L31.3069843,65.9963779 L31.3069843,66 L31.3100137,65.998189 L31.3130432,66 L31.3130432,65.9963779 L69.7867399,43.7777033 L69.7867399,31.3861014 L67.3771352,30 Z M19.9308878,52.1039711 C19.9436113,52.0514489 19.9533055,51.9983231 19.9593644,51.9433863 C19.924223,51.9270862 19.8884759,51.9119936 19.8539405,51.8920714 L13.4042947,48.1817146 C12.2549309,47.5206601 11.5472572,46.2993695 11.5472572,44.9766568 C11.5472572,44.9265496 11.5521043,44.8776497 11.5569514,44.8293535 C11.5920926,44.846257 11.6278399,44.8607459 11.6623755,44.8806682 L18.1120211,48.5916288 C19.2613849,49.2520795 19.9690585,50.4739738 19.9690585,51.7960826 C19.9690585,51.9035418 19.9545173,52.0055675 19.9308878,52.1039711 L19.9308878,52.1039711 Z" id="Shape" fill="#F7BD69"></path>
            <polygon id="Path" fill="#F8DB8F" points="69.7867399 31 30.7867399 53.4705677 30.7867399 66 69.7867399 43.5294323"></polygon>
            <polygon id="Path" fill="#FFF5AE" points="69.7867399 31.4090932 67.3771352 30 31.3366728 51.1953154 3.19634442 34.7397331 0.786739865 36.1488263 31.3130432 54 31.3154667 53.9981588"></polygon>
            <path d="M19.7867399,51.8926496 C19.7525114,51.8771264 19.717693,51.862753 19.6840548,51.8437803 L13.4019655,48.3102503 C12.2824613,47.6807001 11.5931724,46.5176132 11.5931724,45.2579379 C11.5931724,45.2102187 11.5973035,45.1636492 11.6026147,45.1176547 C11.6238599,45.1274285 11.6451051,45.1383521 11.6657602,45.1481261 C10.8200829,44.7077283 9.78673986,45.3010578 9.78673986,46.2456706 C9.78673986,47.504771 10.4760287,48.6684328 11.595533,49.2979828 L17.8776221,52.831513 C18.6394988,53.2598371 19.5689765,52.8257636 19.759003,52.0450065 C19.771396,51.9955623 19.7808383,51.9449683 19.7867399,51.8926496 L19.7867399,51.8926496 Z" id="Path" fill="#B98E4F"></path>
            <path d="M19.7635136,52.1282728 C19.7825169,52.0438134 19.7994088,51.9593539 19.8099661,51.8717272 C19.7983531,51.9593539 19.7825169,52.0438134 19.7635136,52.1282728 Z" id="Path" fill="#B98E4F"></path>
            <path d="M19.6840548,51.8436226 L13.4019655,48.3098944 C12.2824613,47.6803089 11.5931724,46.5171568 11.5931724,45.2574109 C11.5931724,45.209689 11.5978936,45.1636919 11.6026147,45.1171198 C10.7699207,44.7376435 9.78673986,45.3241068 9.78673986,46.2457739 C9.78673986,47.5049449 10.4766189,48.668097 11.595533,49.2976824 L17.8776221,52.8314107 C18.6878907,53.2867821 19.6881857,52.7681646 19.7867399,51.8924946 C19.7525114,51.8769706 19.717693,51.8625964 19.6840548,51.8436226 L19.6840548,51.8436226 Z" id="Path" fill="#F8DB8F"></path>
        </g>
    </g>
</svg>