<?xml version="1.0" encoding="UTF-8"?>
<svg width="50px" height="39px" viewBox="0 0 50 39" version="1.1" xmlns="http://www.w3.org/2000/svg" xmlns:xlink="http://www.w3.org/1999/xlink">
    <title>Path 2</title>
    <g id="V3" stroke="none" stroke-width="1" fill="none" fill-rule="evenodd">
        <g id="Home-Copy" transform="translate(-40.000000, -23.000000)" fill="#000000" fill-rule="nonzero">
            <path d="M87.3093285,28.9345122 C87.1136997,28.6890038 86.9591353,28.4080458 86.8078314,28.1309582 C86.6611098,27.8624911 86.5701688,27.562093 86.4073211,27.3055011 C86.1186364,26.8501098 85.7924121,26.4186449 85.4858388,25.9747769 C85.356389,25.7874129 85.2279965,25.5993452 85.0982823,25.4084627 C84.8854699,25.0947819 84.898688,24.7503137 85.1141441,24.825963 C85.3298645,24.9017002 85.4380772,24.8607968 85.3392054,24.7409015 C85.2769919,24.6652522 85.2079931,24.6002465 85.1267454,24.559695 C84.9581698,24.4749853 84.7485297,24.4613509 84.554399,24.4405913 C84.0758133,24.389572 84.0312241,24.3598401 83.9349077,23.8879115 C83.8989543,23.7119829 83.8752497,23.5329755 83.8619435,23.354232 C83.8555106,23.2666195 83.8551581,23.1787432 83.8562156,23.0829501 C83.8580661,22.9328829 83.5502592,22.9839022 83.2137247,23.2566796 C83.0076976,23.4238997 82.8311911,23.6080091 82.6931935,23.8376839 C82.5388934,24.0939239 82.3616819,24.337673 82.1786544,24.5741211 C82.1347701,24.6305063 82.0136036,24.6800302 81.9503327,24.6602382 C81.4268934,24.4976801 80.9005462,24.5303149 80.3695285,24.5970798 C79.8934984,24.6569835 79.4167633,24.7352718 78.9389708,24.7482025 C78.3291729,24.7647398 77.9653209,24.483342 77.7464281,23.9148286 C77.7324169,23.8789391 77.7169076,23.8437534 77.6946129,23.7938777 C77.6647399,23.7274646 77.5468339,24.0354277 77.715057,24.4255494 C77.8832802,24.8156711 77.7276583,25.1010274 77.3267955,24.8985335 C76.9259327,24.6960397 76.729687,24.5008469 76.786437,24.6297146 C76.8213329,24.7086186 76.8616043,24.7829484 76.9093659,24.8522643 C76.959683,24.9255386 77.0173142,24.9939748 77.0780297,25.062587 C77.176549,25.1742137 76.5041851,25.3774113 75.9005557,24.8486578 C75.2969263,24.3199922 75.1854531,23.8290634 75.1743498,24.1933236 C75.1674764,24.4122668 75.2121538,24.6239969 75.304769,24.8350233 C75.5816455,25.4644959 76.1138087,25.7918111 76.7392922,25.9906985 C76.8665391,26.03125 76.9971345,26.0624773 77.1373352,26.0933528 C77.3592241,26.1425249 77.266785,26.4080891 76.8604587,26.5272808 C76.4542205,26.6463845 76.2917252,26.7763078 76.5109705,26.8682305 C76.7306563,26.9600652 76.6537266,27.2766488 76.3387819,27.5741441 C76.1460611,27.7560543 75.9544858,27.9315431 75.7520717,28.0941891 C75.3533237,28.4147311 74.948143,28.7251572 74.5030434,28.9584385 C73.7584202,29.3485603 73.2234371,29.4705668 73.4492033,29.5947724 C73.5855266,29.669806 73.7242292,29.7400894 73.8655754,29.8047432 C74.2028148,29.9583289 74.2574499,30.1216786 74.0219904,30.4245398 C73.7217618,30.8099994 73.3021292,30.9606823 72.8271565,30.9804743 C72.7671461,30.9829373 72.7067831,30.9833771 72.6463321,30.9825854 C72.5464028,30.9818817 72.4629521,31.0015857 72.4604847,31.0270953 C72.4576648,31.052605 72.7477594,31.13406 73.1072935,31.2086537 C73.4668275,31.2832474 73.6792875,31.8399736 73.3237189,32.3086475 C72.9681503,32.7769695 72.6618414,32.9836856 72.9116647,33.0874835 C73.1615761,33.1911934 73.1799053,33.3430198 72.9527291,33.4265859 C72.7254648,33.5105919 72.6534699,33.645881 72.7923487,33.7288313 C72.9311394,33.8120456 72.7643262,34.1236152 72.3655783,34.3403593 C72.1235978,34.47169 71.8726289,34.5797981 71.6155797,34.6752394 C70.0271971,35.2649522 68.364969,35.5215441 66.6932239,35.7031024 C64.6981625,35.9198465 62.6981663,36.0942797 60.6994919,36.2773335 C59.1200095,36.4219468 57.6394872,36.8533238 56.3954818,37.8650894 C55.7198574,38.4141626 55.0763091,39.0192692 54.50643,39.675395 C54.0606254,40.1882269 53.5964917,40.3806049 52.9201623,40.3712807 C51.9296813,40.3576462 50.9280089,40.4135915 49.9486311,40.5585567 C48.3734667,40.7914862 47.0619606,41.5383912 46.1610106,42.8842453 C45.6044378,43.7154201 45.0816154,44.5714008 44.5783558,45.4360021 C44.1566083,46.1605641 43.8053577,46.9260296 43.3847557,47.6511195 C42.9317252,48.4317148 42.2572464,48.8562306 41.317435,48.7626366 C41.3030713,48.7611412 41.2880026,48.7654514 41.258482,48.7730163 C41.226494,48.781285 41.5011675,48.9388291 41.9045858,48.9872974 C42.1490337,49.0167655 42.3920717,49.0084968 42.6380176,48.9805242 C42.882113,48.9529034 43.1187181,48.9058425 43.3405189,48.8186698 C43.7123018,48.6722092 44.0362349,48.5975275 44.0016914,48.8154151 C43.9804543,48.9485931 43.9157734,49.0669931 43.8244799,49.1670965 C43.5379102,49.4807772 43.2412946,49.8056294 42.8896914,50.0349524 C42.6459485,50.1939039 42.3884587,50.3327996 42.131057,50.4637785 C41.7017311,50.68193 41.861759,50.9192577 42.4769323,50.8137885 C43.0921056,50.7078794 43.3743574,51.160104 42.82316,51.7145431 C42.4945565,52.045113 42.1062069,52.3204413 41.711865,52.587413 C41.3134696,52.8568477 40.8956875,53.0804529 40.4560514,53.2474092 C39.7219146,53.5259042 39.8851149,53.7139719 40.866255,53.5621455 C41.4609843,53.4703108 42.0286603,53.2869052 42.5736892,53.0198455 C43.4649459,52.5834546 44.2300132,52.5077173 43.9586002,52.9631086 C43.6868348,53.4185878 44.0424034,53.5340849 44.8764695,53.1254027 C45.7106237,52.7162807 46.3879224,52.4061185 46.2423463,52.7259568 C46.0967703,53.045707 46.6558105,53.0327763 47.3878323,52.4298689 C48.1198542,51.8269615 48.6634732,51.6563986 48.4232551,52.136244 C48.183037,52.6160893 47.9548034,52.9287145 48.0223923,52.8981909 C48.069449,52.8769915 48.1072529,52.8594866 48.1425013,52.8381992 C48.9948966,52.3250154 49.5967636,51.5953514 49.9764774,50.6837772 C50.4765646,49.4818328 50.3970794,48.2702123 49.9811478,47.0693235 C49.6985435,46.2529267 49.3422699,45.460808 49.0852207,44.6371981 C48.673519,43.321076 49.2686007,42.18229 50.5646857,41.6956714 C51.477532,41.3529624 52.2857786,41.6755276 52.7165145,42.5473419 C52.7967047,42.7099 52.8048999,42.8524022 52.7506174,43.0332568 C52.4062401,44.1845338 52.3281649,45.320417 53.0008812,46.4014104 C53.1087414,46.5747881 53.1860236,46.7678698 53.2684169,46.9559375 C53.6915743,47.9180912 53.6491881,48.8042437 52.8326581,49.5611766 C52.7697396,49.619321 52.7201275,49.6907481 52.6589714,49.7506518 C51.9205167,50.4783805 51.1841769,51.2083964 50.4399062,51.9304955 C50.123199,52.2377548 50.0706788,52.5632228 50.2339672,52.9773588 C50.4716298,53.5814097 50.6999515,54.1947849 50.8581289,54.8227621 C51.2938877,56.5509091 51.3621815,58.2757134 50.6610901,59.9657718 C50.6538642,59.9829248 50.6521018,60.0023649 50.6496344,60.0303376 C50.6463739,60.0665789 50.7830497,59.9797581 50.9555908,59.8365522 C51.1281319,59.6933463 51.2823438,59.58559 51.2996155,59.5961457 C51.3168873,59.6065255 51.2899222,59.7744494 51.2391645,59.9707857 C51.2085864,60.0896255 51.1766866,60.2076736 51.1406451,60.3246662 C51.0450337,60.6350923 50.9382309,60.9416479 50.8328381,61.2491711 C50.7501805,61.491073 50.8404165,61.5983895 51.08601,61.6572376 C52.228588,61.9310705 53.3837674,62.065392 54.5565709,61.9688072 C54.8776842,61.942242 55.1994142,61.8606991 55.5078381,61.7634985 C55.8684295,61.6493208 55.8871993,61.5693612 55.6416059,61.2919218 C55.4377818,61.0615433 55.2184484,60.8415445 54.9840463,60.6426572 C54.7294645,60.4269687 54.4713578,60.2152386 54.2121056,60.004564 C53.7827796,59.6556976 53.4866047,59.3542439 53.5512855,59.3302296 C53.6159664,59.3062153 53.46431,59.1744448 53.2121956,59.035901 C52.9601693,58.8973572 52.9428976,58.6801733 52.9540889,58.4673876 C52.9605218,58.3460848 52.8994539,58.2275969 52.8382978,58.1038311 C52.6884039,57.798331 52.5179777,57.4897522 52.4450134,57.1627889 C52.3073683,56.5465988 52.2771427,55.9048992 52.1214328,55.2940749 C51.9254515,54.524915 52.2699168,54.0106756 52.7952066,53.5430573 C52.8142408,53.5258163 52.8329224,53.5082234 52.8520447,53.4909824 C54.0424725,52.4300448 55.2641832,51.4018299 56.4150446,50.299725 C56.7576594,49.9717061 57.0963088,49.6397287 57.4329313,49.3055523 C57.9905616,48.7518169 58.5611456,48.4107793 58.7395027,48.5166883 C58.9175073,48.6225094 59.2230231,48.8307209 59.3377567,49.0586365 C59.4060506,49.1946293 59.4574252,49.3399464 59.4948766,49.4922126 C59.5740094,49.8144259 59.6307594,50.1471069 59.6498816,50.4780287 C59.7095396,51.5167113 59.4028782,52.4522998 58.8160799,53.3068731 C58.7082197,53.4636255 58.5740994,53.6649758 58.5906662,53.832284 C58.6133133,54.061343 58.6557877,54.2884669 58.7053998,54.5217483 C58.7859425,54.899643 58.9872992,55.0338765 59.2151803,55.0266634 C59.3468332,55.0223532 59.4694096,55.084456 59.5916336,55.1749713 C59.7915803,55.3228393 59.9993699,55.4595358 60.195968,55.6110104 C60.6949977,55.9946228 61.0718035,56.4529168 61.1141897,57.118015 C61.1235306,57.2615728 61.1681198,57.4037231 61.2023108,57.5450818 C61.3357262,58.0956504 61.4878232,58.6400616 61.823917,59.109791 C61.9037547,59.2215057 61.9910827,59.3251277 62.1047589,59.4116846 C62.2866408,59.5502284 62.4430557,59.4860144 62.4027844,59.3546837 C62.3765243,59.2688305 62.3557277,59.1910701 62.3492068,59.1120781 C62.3405709,59.0079283 62.369034,58.8324395 62.4308069,58.8062262 C62.5332917,58.7624199 62.6961395,58.7779017 62.7972144,58.833847 C62.8996992,58.8905839 62.9672881,59.021211 63.0344364,59.1288793 C63.3508792,59.6359936 63.3163357,60.2126876 63.3472662,60.7744277 C63.3688559,61.1630541 63.359515,61.1940175 63.7399338,61.1992954 C64.6818601,61.2122261 65.6263419,61.2308746 66.5658008,61.1749293 C67.06157,61.1455492 67.5581324,60.9936348 68.0363655,60.8415445 C68.3735168,60.734228 68.4033898,60.5899666 68.1395553,60.349824 C67.7551711,60.0006056 67.3420595,59.6758414 66.9099137,59.3873184 C66.6916377,59.2416495 66.464021,59.1103188 66.23191,58.9821548 C65.8500813,58.7712164 65.5695919,58.5238607 65.6062503,58.4272759 C65.6429087,58.3306911 64.9864066,58.2310275 64.3471762,57.7844327 C64.0882764,57.6035781 63.875464,57.3204209 63.4116827,56.7340508 C63.1064313,56.3477995 62.7828507,55.9961181 62.307878,55.7998698 C61.9954887,55.6705622 61.7286581,55.4481005 61.6200929,55.1075026 C61.4147708,54.46334 61.2814436,53.8133716 61.5647529,53.1519679 C61.6589543,52.9319692 61.7298037,52.7019425 61.8221546,52.4811521 C62.5339967,50.7749962 63.2487468,49.0698959 63.9613821,47.3640919 C63.9779488,47.3242441 63.9916076,47.2829008 64.0059713,47.2383909 C64.028266,47.1684593 64.0419247,47.1106667 64.0361969,47.1095232 C64.0308215,47.1084676 64.088717,47.0123226 64.1656468,46.8949782 C64.2425765,46.7776338 64.7438092,46.7445592 65.2869876,46.8051666 C65.6141812,46.8418478 65.9424322,46.8736908 66.2717407,46.8985848 C68.0249098,47.0306192 69.7732321,47.2366316 71.5281636,47.3270589 C73.0690489,47.4063148 74.6161909,47.37368 76.1603367,47.3837959 C77.1188297,47.3898655 78.0539707,47.4986773 78.9617942,47.8389233 C79.8200054,48.1607847 80.6987489,48.4281962 81.5623356,48.736863 C81.9161417,48.8632677 82.256201,49.0293444 82.5974058,49.1887357 C82.7681845,49.2684314 82.8677613,49.4111975 82.8121569,49.6072699 C82.6488686,50.1810611 82.4939517,50.7588987 82.2979704,51.3216065 C82.231439,51.5122251 82.0872729,51.7382934 81.9172873,51.8197484 C81.2406055,52.1431932 80.5381042,52.3043438 79.8326949,51.8696241 C79.7924235,51.8449062 79.7496848,51.8233549 79.7065055,51.8028592 C79.6352155,51.7690809 79.5641018,51.7536872 79.5486806,51.7683772 C79.5331713,51.7830673 79.6126565,51.9837139 79.7262446,52.2166434 C79.8399208,52.4495729 79.8820427,52.6261173 79.8198292,52.6110754 C79.7740943,52.5999039 79.7407846,52.5919871 79.7072986,52.5831027 C79.1852692,52.4398968 78.9228446,52.5070136 78.6689678,52.9774467 C78.3612489,53.5473675 78.1034066,54.1456128 77.8532309,54.7439461 C77.7666078,54.9510141 77.7443132,55.1939716 77.7341793,55.422239 C77.720168,55.7434846 77.8139289,55.8228284 78.1148624,55.7280909 C78.8742018,55.4890039 79.6425296,55.2661903 80.3770188,54.9633291 C80.7164612,54.8232899 81.0514976,54.6797322 81.39235,54.5775176 C81.9671638,54.4051955 82.5213574,54.2566238 82.5921186,54.0280046 C82.6355623,53.8877015 82.6790941,53.7512688 82.7272963,53.6166834 C82.8570987,53.2563816 83.0381875,52.9107698 83.1321246,52.5421113 C83.2309965,52.1545406 83.3470519,51.7784052 83.4980915,51.4198626 C83.7515277,50.8183626 84.1485132,50.4622831 84.2347838,50.546289 C84.2868633,50.5968685 84.3386785,50.6477998 84.3904937,50.6984673 C84.3991296,50.7067359 84.4080298,50.713861 84.4174588,50.7210741 C84.4329681,50.7325094 84.494741,50.7993623 84.5479661,50.8757153 C84.5810115,50.9231281 84.609034,50.9715965 84.6299187,51.0225278 C84.8981593,51.685075 84.9516488,52.3823681 84.9128755,53.090129 C84.9009792,53.304762 84.7845712,53.3829622 84.5911454,53.3435542 C84.4684809,53.3183964 84.3473144,53.2886645 84.2243855,53.2567334 C84.0231169,53.2046586 83.8141818,53.3722306 83.8857361,53.6159797 C83.9284749,53.7620005 83.9960637,53.9020397 84.0558098,54.0423427 C84.2639519,54.529753 84.285894,55.0106539 84.2025315,55.5431899 C84.0353658,56.6109887 84.2081712,57.653102 84.8021955,58.5740883 C85.1419022,59.1005548 85.250908,59.038452 85.5356273,58.5716253 C85.8675794,58.0274781 86.1094718,57.4273855 86.3783292,56.8463812 C86.4297919,56.7354582 86.4725307,56.6210166 86.5131545,56.5054315 C86.5807434,56.3141091 86.7364533,56.1856812 86.8622902,56.2190197 C86.9881271,56.2524462 87.0387968,56.0041229 86.9747327,55.6641408 C86.9352545,55.4532024 86.8963931,55.2507085 86.8550643,55.0490064 C86.8094176,54.8258409 86.7979618,54.7077048 86.8673131,54.6485048 C87.0427622,54.4984377 87.2283452,54.1948729 87.0784513,53.7239119 C86.9896252,53.445065 86.8577079,53.1867138 86.6203978,52.9673308 C86.5226716,52.8769915 86.4423933,52.754897 86.3874057,52.6324507 C86.242799,52.3109411 86.1019815,51.9879362 85.9843398,51.6601811 C85.7877417,51.113219 85.9286473,50.4120554 85.9314672,50.0623973 C85.9343752,49.7128271 85.7351334,49.4275588 85.733371,49.3636967 C85.7323135,49.3202424 85.7240301,49.2801306 85.7034979,49.2534774 C85.6844638,49.2287595 85.6643722,49.2050091 85.64384,49.1809948 C85.6103539,49.1415868 85.5553664,49.030312 85.4986164,48.9456023 C85.4647779,48.8953747 85.4245066,48.8483138 85.3778024,48.8063548 C85.309861,48.7453076 85.2419197,48.6842604 85.1739783,48.6233011 C85.0615358,48.5221421 84.9708592,48.4119228 84.9712117,48.3767371 C84.9715642,48.3555377 84.9715642,48.3344263 84.9708592,48.3127871 C84.9672462,48.2198088 84.9345533,48.0876864 84.8687269,48.0446718 C84.4326156,47.7579081 84.0101631,47.4248753 83.5327231,47.230738 C82.6749524,46.8814317 81.9528882,46.3414188 81.2353182,45.7868917 C80.8818645,45.5137625 80.8743742,45.4753221 81.0570492,45.0734132 C81.4999458,44.0993843 81.9501565,43.1286101 82.4178151,42.1663685 C82.5569583,41.8796048 82.6072754,41.6007579 82.5314913,41.3000079 C82.3707584,40.6615629 82.1737197,40.0305949 82.0453272,39.3856405 C81.966547,38.9894493 81.8896173,38.5500675 81.9809988,38.1707654 C82.2923306,36.8773381 82.3923481,35.5680772 82.4164051,34.2477328 C82.428654,33.5711993 82.4210756,32.8943139 82.4271559,32.2177803 C82.4307689,31.7917691 82.6924885,31.5789835 83.0721141,31.6944806 C83.1849973,31.7289626 83.2910069,31.7899219 83.3938442,31.8499136 C83.7264132,32.0444027 84.0536068,32.2483039 84.3872333,32.4410338 C85.3662585,33.0066443 86.3456363,33.571903 87.3303013,34.1274856 C87.4500579,34.1949542 87.6298249,34.2685804 87.7361871,34.2258297 C88.0957211,34.082272 88.4200948,34.1490369 88.7554837,34.2832704 C88.855413,34.3231182 88.974024,34.323822 89.0847922,34.3267248 C89.4533146,34.3356971 89.4853025,34.306581 89.4637128,33.9412652 C89.4522571,33.7416741 89.519141,33.6322465 89.7136243,33.552199 C89.8232469,33.5069853 89.9275823,33.3680897 89.9649456,33.2496897 C90.0091824,33.1090348 89.9621257,32.9420785 89.9844204,32.7910438 C90.0527142,32.3255366 89.8941844,32.0086012 89.554037,31.6475956 C88.7517826,30.7925825 88.041791,29.8518921 87.3093285,28.9345122 Z" id="Path-2"></path>
        </g>
    </g>
</svg>