<?xml version="1.0" encoding="UTF-8"?>
<svg width="398px" height="156px" viewBox="0 0 398 156" version="1.1" xmlns="http://www.w3.org/2000/svg" xmlns:xlink="http://www.w3.org/1999/xlink">
    <title>Group 3</title>
    <g id="V3" stroke="none" stroke-width="1" fill="none" fill-rule="evenodd">
        <g id="Home-Copy" transform="translate(-104.000000, -184.000000)" fill-rule="nonzero">
            <g id="12AcreLogo" transform="translate(104.000000, 184.000000)">
                <path d="M39.321177,5.00657253 C39.618931,8.17359251 39.9166851,11.3406125 40.2134817,14.4973042 C37.0798839,12.0044379 34.3426532,10.3763286 32.002747,9.66086194 C30.5666344,9.27871628 28.7303251,9.15947183 26.4947764,9.31157895 C26.242978,16.5113149 26.1261742,22.4322245 26.1453224,27.0545901 C26.1615983,33.082538 26.4392467,41.4418558 26.9782677,52.0855969 C23.964346,52.3710324 20.9523391,52.6724298 17.9403322,52.9728883 C17.8761858,54.134348 17.8053376,55.2131817 17.7287449,56.2 C21.8015603,55.7868696 25.8753332,55.3868843 29.9500634,55.000044 C29.4110424,44.356303 29.133394,35.9969852 29.1171181,29.9680983 C29.0989274,25.3466716 29.2147738,19.4257619 29.4675296,12.226026 C31.7030782,12.0739189 33.5384302,12.1931634 34.9745429,12.575309 C37.314449,13.2898368 40.0526371,14.918885 43.1862348,17.4117514 C42.7965697,13.2832642 42.4078618,9.14632677 42.0181966,5 C41.1191901,5.00187786 40.2201836,5.00469467 39.321177,5.00657253 Z M190.62593,23.372447 C189.100133,28.4579095 187.17008,35.6819383 184.836732,45.0637565 C181.109139,45.0925911 177.382505,45.1396877 173.65587,45.19159 C173.942978,46.3046055 174.196478,47.3118943 174.412528,48.2 C178.880456,48.1327193 183.349344,48.0817781 187.818232,48.0471766 C190.151579,38.6653584 192.080672,31.4413296 193.60647,26.3558671 C196.817462,16.3877453 199.182497,9.27521029 200.704453,5 C199.363979,5 198.023505,5 196.683031,5.00096116 C195.197562,9.32519024 193.181089,15.4419704 190.62593,23.372447 Z M160.909237,45.7923162 C152.542348,45.9797512 144.176398,46.2427649 135.812333,46.5571722 C135.713478,47.9578965 135.599559,49.0421981 135.469636,49.8 C144.921105,49.4261377 154.375399,49.1328925 163.831577,48.9202645 C164.454833,44.9428122 165.078089,40.9693907 165.700405,37 C164.484019,37.9240749 163.218676,38.7121083 161.91285,39.3903007 C161.578627,41.5246418 161.244402,43.6559597 160.909237,45.7923162 Z M128.232836,45.4293617 C119.582791,45.7747645 110.935619,46.1919271 102.292277,46.6626701 C102.220449,47.7438482 102.143832,48.7991928 102.05668,49.8 C111.768827,49.254627 121.485762,48.7867544 131.205571,48.3992525 C132.0972,44.5902527 132.987871,40.7908208 133.878543,37 C132.51572,37.9319181 131.100223,38.7260578 129.643544,39.4111227 C129.173309,41.4165645 128.703073,43.4181791 128.232836,45.4293617 Z M62.212024,49.3086859 C60.1124072,49.4789954 58.0136935,49.6588728 55.9149798,49.8377935 C56.1127501,51.005083 56.2870408,52.0613844 56.437852,53 C59.2960401,52.7512334 62.1560342,52.5110779 65.0160283,52.2785768 C67.1246757,40.7568545 68.8630681,32.5676484 70.2348178,27.5664822 C69.6821445,25.2960084 69.1195375,23.106862 68.5469968,21 C67.0524309,25.0501121 64.9410743,34.4027807 62.212024,49.3086859 Z M85.4619598,47.824454 C83.0374472,47.982046 80.6138653,48.1490747 78.1902834,48.317047 C78.3922486,49.3465853 78.6081744,50.363856 78.8026939,51.4 C81.9848085,51.1754077 85.1678539,50.9602522 88.3508996,50.7535896 C93.9026145,24.1601708 97.4104796,9.19364655 98.8744939,5 C97.6161674,5.00188733 96.3587714,5.00377466 95.1004448,5.00660565 C93.3171944,11.4820338 90.1052971,25.5841611 85.4619598,47.824454 Z M230.109111,45.1746062 C221.44462,45.0215821 212.779169,44.9416586 204.112762,44.9143678 C204.043775,45.9523975 203.969998,46.9650857 203.88664,47.923192 C213.62042,47.9348882 223.352284,48.028457 233.083189,48.2 C233.958932,44.4708902 234.833717,40.7369071 235.708502,37 C234.357519,37.8625881 232.954797,38.5838482 231.510875,39.1930206 C231.043301,41.1872073 230.576685,43.1823688 230.109111,45.1746062 Z M393.973281,47.2001284 C393.438889,49.7918979 392.904497,52.3909707 392.37203,54.9663077 C383.707171,54.0652593 375.033646,53.2335924 366.355306,52.4512232 C366.300423,53.325797 366.24265,54.1738963 366.178138,54.9936952 C375.914671,55.8545752 385.641574,56.7894016 395.360776,57.8 C396.239875,53.555852 397.118975,49.2897939 398,45 C396.702052,45.8827901 395.355962,46.6058199 393.973281,47.2001284 Z M370.49872,72.2 C370.305901,72.6223581 370.112093,73.0456054 369.918286,73.4679635 C367.208932,74.2050896 364.552976,74.4095998 361.949426,74.1028344 C359.896646,73.8583113 358.12469,73.2945744 356.631579,72.413402 C358.515272,74.9333239 361.308674,76.4209136 365.018708,76.8619444 C367.623246,77.169599 370.278214,76.9650887 372.988556,76.2279626 C373.36925,75.3956949 373.751921,74.5625379 374.133603,73.7276026 C373.805317,73.6893681 373.462198,73.6493552 373.106225,73.607564 C372.265733,73.5106439 371.396564,73.0367137 370.49872,72.2 Z M269.820448,33.8006574 C268.705079,33.7719648 266.955518,34.6883342 265.939271,35.4155118 C267.003635,37.1433433 267.003635,38.4201632 267.193219,40.2 C268.900436,37.7414043 270.772216,36.5300393 272.807597,36.5838379 C273.706436,36.6080473 274.598539,36.897663 275.48583,37.4302691 C273.622711,35.0604411 271.734572,33.851766 269.820448,33.8006574 Z M280.831145,5.0028427 C280.110411,5.00189514 279.389678,5.00094757 278.668016,5 C279.764905,9.37680996 281.380054,15.4886144 283.517176,23.3989002 C287.382759,36.2621164 290.110587,44.1591362 291.696014,46.8587534 C287.781206,46.6483936 283.865469,46.4598279 279.948804,46.2769475 C280.260874,47.7181962 280.447558,48.6705007 280.504214,49.102591 C285.196411,49.3157935 289.888608,49.5479473 294.578947,49.8 C292.99352,47.1003828 290.265693,39.203363 286.40011,26.3401468 C283.733583,16.4693458 281.876951,9.39197108 280.831145,5.0028427 Z M343.503374,8.20060348 C342.868862,8.19382376 342.181887,8.24418736 341.438489,8.35072573 C341.257341,11.9555967 341.174191,16.4176173 341.19102,21.7406616 C341.236554,36.2211629 341.527578,46.1660353 342.067061,51.593681 C339.041006,51.3563909 336.01198,51.1345975 332.983946,50.9108669 C332.917623,51.9191073 332.845362,52.844054 332.765182,53.6702106 C336.890992,53.966581 341.015811,54.2774794 345.140631,54.6 C344.726862,50.4469407 344.459595,43.641076 344.335861,34.1930598 C343.744903,32.4777921 343.157906,30.8322586 342.575859,29.2690501 C343.177704,29.1247391 343.740944,28.9562148 344.284387,28.7750995 C344.275478,27.4695203 344.267559,26.1358535 344.2636,24.7469806 C344.247761,19.4239363 344.330911,14.9619158 344.511069,11.3570448 C345.254467,11.2505064 345.941442,11.2001428 346.575953,11.2069225 C347.980589,11.220482 349.210017,11.4877964 350.267206,12.0059603 C348.86455,9.49940305 346.611589,8.23159646 343.503374,8.20060348 Z M325.666344,39.8539791 C325.432063,41.603525 325.196837,43.3595542 324.961612,45.1053955 C323.965916,46.1102961 322.880477,46.9716395 321.702459,47.6912781 C318.897698,49.4204482 315.921004,50.2160332 312.769545,50.1169323 C307.277164,49.9798583 302.811653,48.5516954 299.352227,45.8639334 C303.056325,50.4234966 308.502416,52.8111776 315.701838,52.9917819 C318.853297,53.0908826 321.829991,52.2943715 324.634751,50.5661276 C325.812769,49.8464891 326.899154,48.9851456 327.893905,47.9793188 C328.456935,43.7967092 329.019965,39.6039116 329.582996,35.4 C328.392696,37.1300962 327.082423,38.6036418 325.666344,39.8539791 Z M263.37442,30.6 C260.890608,39.0919677 259.352913,44.4553157 258.767414,46.7509464 C257.808127,46.7195129 256.848841,46.6920086 255.888541,46.6615573 C255.48639,47.7627136 255.123746,48.7391179 254.801619,49.5789828 C257.17198,49.648726 259.542339,49.7223984 261.912698,49.8 C262.271291,48.3920393 263.613483,43.6694771 265.939271,35.6323135 C264.393473,33.882513 263.538523,32.2050752 263.37442,30.6 Z M308.432938,40.2 C306.287523,36.8559567 305.302635,31.9168548 305.489603,25.3172757 C305.603861,20.587898 306.405558,17.1341824 307.895639,14.9407363 C309.043889,13.2860313 310.865415,12.1431304 313.358326,11.5168439 C313.935284,11.4158299 314.538681,11.3667659 315.169463,11.3744623 C318.897498,11.4158299 323.172274,13.6631502 327.991903,18.2626527 C327.376229,14.448173 326.758667,10.6433136 326.142049,6.8490366 C325.696347,6.17849628 324.77567,5.56183006 323.395125,5 C323.950365,8.41812022 324.505604,11.8420126 325.059899,15.2764875 C320.241215,10.6769849 315.965495,8.42966464 312.237459,8.38829701 C311.607622,8.38156274 311.004224,8.42966464 310.426322,8.53164062 C307.934355,9.15792723 306.11283,10.3008281 304.963636,11.9555331 C303.474499,14.1480172 302.671857,17.6017327 302.556655,22.3320725 C302.368742,28.9980322 303.371573,33.9756156 305.563257,37.321583 C306.405558,38.5741562 307.363063,39.5342699 308.432938,40.2 Z M268.432776,26.4675096 C269.374124,22.8642027 270.134049,19.9769925 270.712551,17.8182417 C269.942356,14.6704598 269.373268,12.5288269 269.008709,11.4 C268.302698,13.8573621 266.750328,19.7516075 264.348178,29 C265.60873,27.4812665 266.971118,26.6358351 268.432776,26.4675096 Z M383.201628,28.4427526 C386.284264,28.5845378 389.097563,30.1082432 391.635628,33.0731079 C391.088105,29.4371912 390.540584,25.8129282 389.992079,22.2003186 C389.092649,21.6778499 388.166678,21.2796859 387.21515,21 C387.671255,24.0134213 388.128341,27.0297561 388.584446,30.0587155 C386.0454,27.0938507 383.233083,25.5701453 380.149463,25.42836 C378.048827,25.3312469 376.042558,25.8236106 374.133603,26.8860286 C374.148348,36.9090777 374.199463,43.3214597 374.284983,46.1231744 C375.362333,46.3212852 376.35613,46.4766663 377.2821,46.6 C377.230002,43.1621941 377.19658,37.6014946 377.185768,29.900421 C379.093739,28.8380031 381.099025,28.3456394 383.201628,28.4427526 Z M377.080761,12.4939358 C384.292773,12.3198574 390.207262,13.6221166 394.817814,16.5376932 C394.206191,12.6794293 393.593652,8.83543403 392.980196,5.00665875 C392.187929,5.00475624 391.395662,5.00285375 390.603396,5 C391.06005,7.8565993 391.515786,10.7122474 391.971523,13.5850179 C387.360055,10.6703924 381.445564,9.36718191 374.234471,9.54221166 C374.184954,10.9757431 374.151026,14.2632581 374.133603,19.4 C375.030405,18.6475625 375.988644,18.0844233 377.003736,17.700119 C377.022992,15.1774078 377.048668,13.4318668 377.080761,12.4939358 Z M214.794115,11.0874382 C222.001999,10.8547973 227.912427,11.8352127 232.526316,14.0425321 C231.910094,11.0265084 231.295702,8.01140784 230.680394,5 C229.926826,5 229.175089,5 228.422437,5 C228.842713,7.05776459 229.26299,9.11645239 229.684183,11.1769865 C225.070295,8.96966703 219.159866,7.99017474 211.951981,8.22189252 C211.901621,9.38232772 211.864996,12.0420046 211.842105,16.2 C212.742175,15.5657764 213.702677,15.0866469 214.719032,14.7524563 C214.739176,13.006726 214.764814,11.7770525 214.794115,11.0874382 Z M367.769231,70.6 C366.841413,69.1739203 365.882516,67.297096 364.891624,64.9637726 C363.109118,60.7517068 361.144704,54.8843528 358.997468,47.4259658 C357.563236,42.299943 356.129918,37.1844697 354.696599,32.0805047 C360.098052,29.6407289 362.854996,25.3768754 362.970173,19.3819702 C363.064326,15.4499416 362.079834,12.0453802 360.013954,9.22295079 C359.196744,8.10567926 358.327428,7.24255103 357.412408,6.6 C359.309179,9.3533791 360.222371,12.6342255 360.132788,16.4060958 C360.01761,22.4000419 357.259753,26.6638954 351.8583,29.1036713 C353.291618,34.2076363 354.72585,39.3240686 356.159169,44.4500914 C358.307318,51.9075194 360.270818,57.7748733 362.053325,61.9869392 C364.092695,66.7888093 365.997693,69.6793299 367.769231,70.6 Z M113.084431,40.2 C113.054022,37.1165633 113.048136,32.426862 113.069717,26.1131583 C114.982565,25.0400158 116.990564,24.4861995 119.091754,24.4408693 C122.175853,24.374845 124.983325,25.5287933 127.51417,27.8751221 C126.977591,24.8153359 126.441013,21.7506225 125.905416,18.6809819 C125.042182,18.2897629 124.153444,18.0010294 123.241162,17.8 C123.650218,20.1404162 124.059273,22.4808324 124.468328,24.8163213 C121.937482,22.4699925 119.130992,21.3160441 116.046892,21.3820685 C113.945703,21.4273987 111.937703,21.9812151 110.024855,23.0543575 C109.995428,31.9577933 110.017008,37.6496854 110.090579,40.1270776 C111.166678,40.1773349 112.158417,40.1990146 113.084431,40.2 Z M10.884024,10.3777311 C9.44424268,10.8749423 7.65435075,11.8935206 5.52909993,13.4395051 C5.3530611,15.4273433 5.17603882,17.4081359 5,19.4 C8.76959113,16.191277 11.7494662,14.2567834 13.9366748,13.5009016 C14.3133388,13.3821346 15.055849,13.2684001 16.1376518,13.1586915 C16.110115,12.0424827 16.0835617,10.9313063 16.0501242,9.8 C13.2610397,9.97815057 11.5390064,10.1703921 10.884024,10.3777311 Z M83.6213107,30.6 C83.9537899,29.1650049 84.2642373,27.8293781 84.5546559,26.5755841 C83.6203093,23.3334501 82.6148602,19.6100616 81.5333014,15.3596316 C80.7081122,12.1418525 79.8568853,8.68831718 78.979621,5 C78.1854765,5.00097419 77.3923333,5.00292259 76.5991903,5.0038968 C77.2210866,7.56896262 77.8299641,10.0161504 78.42382,12.3357181 C80.400669,20.1069031 82.133166,26.1751883 83.6213107,30.6 Z M61.1727848,30.6 C61.5112859,29.4872013 61.8819814,28.1904999 62.2793522,26.7295998 C61.8175925,24.6588184 61.3171997,22.2493183 60.7726544,19.4598153 C59.4379667,12.6225773 58.6588623,7.7810585 58.4371809,5 C57.5955273,5.00187656 56.7557135,5.00281484 55.9149798,5.0046914 C56.3013125,7.82797245 56.9645171,11.6702243 57.9174713,16.5473978 C59.252159,23.3836974 60.3366503,28.0497582 61.1727848,30.6 Z M180.664253,35.4 C180.951829,34.6248125 181.269121,33.7087689 181.611336,32.6777407 C180.244393,28.6456156 178.985769,24.4831747 177.853679,20.1655046 C176.127265,13.5337704 175.027767,8.47444998 174.552308,5 C173.723132,5 172.893954,5.0009582 172.064777,5.0009582 C172.655267,8.1898632 173.591805,12.253609 174.878228,17.1912375 C176.551919,23.5728803 178.479635,29.6421484 180.664253,35.4 Z M229.34413,27.4755231 C228.793973,24.5417549 228.244798,21.6089558 227.694642,18.6790644 C226.837536,18.294292 225.953952,18.0064396 225.049774,17.8 C225.466559,20.0214063 225.883344,22.2437818 226.300129,24.4680957 C223.757251,22.1546153 220.944688,20.9944831 217.86048,20.9799451 C215.757923,20.9692839 213.752452,21.4422534 211.842105,22.394977 C211.84799,30.7349425 211.8931,36.0684497 211.975476,38.3935604 C213.04833,38.4895112 214.035866,38.556386 214.957695,38.6 C214.914546,35.7098457 214.891009,31.3174317 214.887087,25.4033736 C216.796453,24.4506501 218.802903,23.9776805 220.905461,23.9883417 C223.988689,24.0028797 226.801252,25.163012 229.34413,27.4755231 Z M143.619116,38.3716034 C144.59352,38.4858017 145.474381,38.5590789 146.28162,38.6 C146.237447,33.9131107 146.209731,29.7915031 146.196738,26.249452 C146.156896,22.6455434 146.12918,19.0416348 146.113589,15.4358229 C146.125715,10.1551024 146.289416,6.6758603 146.607287,5 C145.607766,5.00095165 144.607378,5.0019033 143.608723,5.00285496 C143.494392,6.86714249 143.432897,9.35000426 143.425101,12.4818931 C143.440692,16.087705 143.468408,19.6916135 143.509117,23.2955221 C143.522975,27.5103918 143.559352,32.5360693 143.619116,38.3716034 Z M130.696356,14.9487307 C130.094348,11.6387616 129.493254,8.32185757 128.89216,5 C128.130958,5.00099071 127.37067,5.00297214 126.609468,5.00297214 C127.025751,7.29448916 127.441118,9.58798759 127.856486,11.8735603 C123.256335,9.51566563 117.356102,8.47343652 110.154871,8.80928791 C110.099977,10.1170279 110.052402,13.1149225 110.012146,17.8 C110.916074,17.0629102 111.8813,16.5021672 112.903251,16.1058823 C112.931614,14.0878019 112.961805,12.673065 112.994742,11.8844582 C120.195972,11.5486068 126.096206,12.5898452 130.696356,14.9487307 Z" id="Fill-4" fill="#1A1919"></path>
                <path d="M377.199918,44.9018697 C375.842856,44.7862304 374.272733,44.5652935 372.48859,44.2409393 C372.405092,41.5276463 372.356146,35.3197896 372.34175,25.6164292 C374.204592,24.5878975 376.162447,24.1112378 378.215315,24.2052536 C381.225997,24.3425165 383.970833,25.8176228 386.449823,28.6888623 C385.916211,25.1689145 385.380681,21.6602486 384.84515,18.1628645 C383.059087,17.1324525 381.166494,16.5928024 379.16641,16.530752 C376.606803,16.4508386 374.328397,17.2180067 372.331193,18.8012311 C372.350388,13.7234432 372.385898,10.4742606 372.437723,9.05744403 C379.985063,8.88539532 386.175339,10.1724703 391.000876,13.0531113 C390.360734,9.23983448 389.719633,5.44160021 389.077572,1.65652814 C379.77872,1.6311439 370.478909,1.60763997 361.178138,1.58695652 C361.583145,4.13384182 361.831716,7.81549662 361.921931,12.6272202 C361.92481,13.8437833 361.933448,18.4223479 361.950723,26.3600934 C361.99679,36.2712285 361.774132,44.5164054 361.282749,51.0664791 C370.986608,51.9530472 380.681828,52.9157679 390.369372,53.9565217 C391.245608,49.5857318 392.121845,45.1923782 393,40.7755207 C388.291551,44.0820528 383.027416,45.4001529 377.199918,44.9018697 Z M359.778555,60.5770239 C357.952073,56.4182327 355.939196,50.6250896 353.73805,43.2619838 C352.269371,38.2007955 350.800692,33.150023 349.332013,28.1096666 C354.866723,25.7007492 357.691682,21.4908253 357.809701,15.5726912 C357.906177,11.6903952 356.897396,8.32889495 354.78055,5.54121704 C352.795773,2.92587519 350.527188,1.6371423 347.973859,1.63240779 C340.708205,1.61631047 333.441616,1.60021315 326.174089,1.58695652 C326.651784,4.39167866 326.912175,12.1297574 326.953388,24.7926707 C326.988981,35.8591082 326.780106,43.8017176 326.3277,48.6044018 C330.23169,48.8941537 334.134742,49.198109 338.037795,49.5143741 C337.526379,44.2069915 337.250065,34.4842072 337.207916,20.3270834 C337.192929,15.122913 337.271608,10.7605379 337.44208,7.23617066 C338.14551,7.1329584 338.796487,7.08277263 339.395949,7.08940093 C343.614654,7.1320115 346.173603,9.65550393 347.071858,14.6882852 C347.255442,15.660753 347.349108,16.60292 347.351918,17.5128923 C347.365032,22.8136466 344.422053,26.2253326 338.519236,27.6882954 C341.824701,36.8666113 345.305321,48.6934106 348.953603,63.3580736 C350.345476,68.9826682 353.665927,72.1519475 358.9084,72.8536014 C361.37462,73.1802825 363.891419,72.9624951 366.457861,72.1775137 C366.819411,71.291214 367.18096,70.4039674 367.54251,69.51388 C367.23154,69.4731632 366.90652,69.4305526 366.569323,69.3860483 C364.49369,69.1161813 362.230725,66.1419639 359.778555,60.5770239 Z M310.296035,40.3282881 C309.755174,40.4607808 309.199469,40.5093932 308.632632,40.4779381 C306.078615,40.3349604 303.971759,39.010987 302.312993,36.5250815 C300.158824,33.2099054 299.174512,28.2771749 299.360057,21.6735119 C299.47231,16.9857499 300.260874,13.5647704 301.723891,11.3915094 C302.852927,9.75203181 304.641574,8.61964852 307.090759,7.99912534 C307.657597,7.89904095 308.25041,7.85042853 308.870128,7.85710083 C312.531844,7.89808776 316.733494,10.124727 321.467657,14.6819027 C320.862782,10.9025257 320.256052,7.13268052 319.65025,3.37332037 C319.105678,2.54881568 317.853254,1.8034253 315.889268,1.14572791 C313.719328,0.379367479 311.397241,2.13162821e-13 308.921153,2.13162821e-13 C305.643514,0.000953184618 302.653467,0.647212357 299.950087,1.92066701 C295.700196,3.9414184 292.550582,7.12314867 290.500317,11.4715769 C288.810009,15.0879593 287.973204,19.273393 287.987854,24.0574266 C288.001036,28.0017046 288.554885,31.5933042 289.649597,34.8493829 C292.777874,44.1305416 299.349852,48.9250602 309.359037,49.187186 C312.453915,49.2891768 315.378094,48.4703911 318.13157,46.6917486 C319.288439,45.950171 320.355318,45.0646625 321.333137,44.029504 C321.885131,39.7249222 322.438053,35.4089023 322.991903,31.0823973 C319.655817,36.1619182 315.42448,39.2121089 310.296035,40.3282881 Z M265.97146,24.3535444 C264.153198,24.3122694 262.474592,25.1593455 260.939271,26.8825779 C263.484839,17.758921 265.128984,11.9457088 265.878053,9.52173913 C266.618962,11.6595978 268.153376,17.4474821 270.48583,26.9782609 C269.168157,25.2644092 267.662762,24.3920052 265.97146,24.3535444 Z M275.550929,1.60011125 C271.466294,1.59541313 267.380712,1.59071502 263.297025,1.58695652 C261.104021,9.32569348 259.080659,16.3155507 257.22504,22.5771999 C253.798117,33.088765 251.322696,40.3295016 249.801619,44.3905532 C252.019264,44.4563268 254.236907,44.5267986 256.454551,44.6010287 C257.002328,42.4051293 259.616115,38.3224663 261.45657,36.0626725 C263.297025,33.8028786 264.98016,32.2177342 266.985516,32.2741116 C269.174728,32.3361267 271.328876,34.0246297 273.450801,37.3659299 C274.519819,41.8469931 275.108348,44.5098853 275.217334,45.3301764 C280.006119,45.5415916 284.793007,45.7717993 289.578947,46.0217391 C287.961205,43.3447525 285.178725,35.5148722 281.233404,22.7585471 C278.512526,12.970492 276.618051,5.95338568 275.550929,1.60011125 Z M210.139638,37.557924 C210.059164,35.2754732 210.015095,30.0376389 210.009346,21.8472765 C211.875586,20.9106912 213.834752,20.4462058 215.888765,20.4566758 C218.900806,20.470953 221.64843,21.6102748 224.132597,23.8822556 C223.596101,21.0011135 223.058647,18.1218752 222.522151,15.2435886 C220.734471,14.4354983 218.842366,14.0281217 216.842003,14.0205072 C214.28311,14.0119409 212.004919,14.7048617 210.005515,16.0945106 C210.028507,11.8075389 210.067786,9.06536177 210.11952,7.86988296 C217.661117,7.63097757 223.845188,8.64085258 228.672692,10.9156889 C228.028898,7.8061114 227.385102,4.69748578 226.741307,1.59266741 C217.456099,1.58886015 208.17089,1.58695652 198.88664,1.58695652 C199.286138,3.77803313 199.526603,6.93996036 199.607077,11.0736901 C199.608035,12.1187821 199.608035,16.0545345 199.608993,22.8761878 C199.636776,31.3911188 199.397269,38.4878466 198.890472,44.1635155 C208.62308,44.1758891 218.353772,44.2663115 228.083505,44.4347826 C228.959142,40.7921891 229.833822,37.1467402 230.708502,33.4965322 C225.991172,36.440494 220.708604,37.8672637 214.863675,37.8168175 C213.502317,37.8053957 211.928277,37.7197324 210.139638,37.557924 Z M183.303097,21.3620696 C181.555331,27.5092001 180.165279,31.9918006 179.131991,34.7974775 C176.969581,29.0679096 175.060512,23.0294597 173.403835,16.6811746 C171.694023,10.0821613 170.606651,5.04853081 170.136025,1.59172321 C165.400358,1.59362989 160.663742,1.59553657 155.927126,1.59839659 C159.629505,10.871526 162.37735,18.2827843 164.164018,23.8903249 C166.843546,33.3541222 168.69853,40.1924235 169.724228,44.4347826 C174.139187,44.3680488 178.555095,44.3175219 182.971002,44.284155 C185.276687,34.9776586 187.18291,27.812362 188.690619,22.7682447 C191.864493,12.8821182 194.20054,5.82740886 195.704453,1.58695652 C193.25075,1.58695652 190.797046,1.58695652 188.342393,1.58695652 C187.126928,7.3765849 185.447478,13.9651114 183.303097,21.3620696 Z M141.106423,38.4615371 C141.042402,32.5387672 141.001919,27.4361621 140.986855,23.1585524 C140.942606,19.500172 140.912479,15.8408256 140.895532,12.1805131 C140.908713,6.81997644 141.086652,3.28814686 141.432173,1.58695652 C137.818791,1.58985464 134.205409,1.59371878 130.592969,1.59758293 C131.083478,3.98852336 131.312256,11.3081822 131.279304,23.5613897 C131.245411,35.7121972 130.975208,43.1970483 130.469636,46.0217391 C139.921105,45.6623735 149.375399,45.3812568 158.832518,45.1774231 C159.454833,41.365443 160.078089,37.5563609 160.700405,33.751143 C156.342316,36.9255391 151.408986,38.588088 145.90418,38.7242991 C144.591764,38.7571443 142.993139,38.669235 141.106423,38.4615371 Z M108.313615,39.9200581 C108.241786,37.4923723 108.220717,31.9137163 108.249448,23.1889185 C110.117942,22.1382732 112.077419,21.5946029 114.129793,21.5501823 C117.139879,21.4854826 119.880848,22.6162782 122.351742,24.9164961 C121.827874,21.9171356 121.304006,18.9139125 120.781096,15.9068266 C118.998796,15.094701 117.108275,14.6987777 115.11049,14.7277477 C112.553401,14.764443 110.273092,15.537942 108.26956,17.0598326 C108.3117,12.4931952 108.361501,9.57205367 108.418963,8.29737377 C115.957106,7.9700128 122.134342,8.9849284 126.948755,11.2841806 C126.319539,8.05692278 125.689365,4.82483666 125.060149,1.58695652 C115.778972,1.59564752 106.496837,1.60723552 97.2156602,1.62172052 C97.6073645,3.98856937 97.8352989,7.39930383 97.8994661,11.8587522 C97.8956356,12.9866509 97.8812694,17.2326869 97.8554109,24.5939634 C97.8506227,33.7832468 97.5843789,41.4477427 97.0566802,47.6086957 C106.769785,47.0582657 116.485762,46.5870204 126.205571,46.1949598 C127.0972,42.350641 127.987871,38.5159789 128.878543,34.6900078 C124.151281,37.951064 118.86759,39.7220965 113.030342,39.9606162 C111.670392,40.0156592 110.098788,40.0031055 108.313615,39.9200581 Z M83.7693325,14.0525084 C83.293885,16.2492432 82.1305358,21.5343512 80.2802211,30.0034688 C78.8903793,25.6157955 77.2712369,19.5984425 75.4237299,11.8924825 C74.6534674,8.70171084 73.857935,5.27716175 73.0371328,1.61883526 C70.3828624,1.62366537 67.728592,1.62849549 65.0733857,1.63332559 C61.9577066,15.5604692 59.5608143,25.4332173 57.8799012,31.0168263 C57.0300854,28.3911776 55.9256993,23.5861826 54.5676787,16.547744 C53.2096582,9.50930553 52.4169336,4.52366435 52.1913767,1.66037423 C48.0527365,1.66906842 43.9150322,1.67776262 39.7773279,1.68838887 C42.6403086,12.4469793 44.7498732,20.919961 46.1116375,27.282184 C48.1622392,38.1789157 49.5820305,45.9669875 50.3747551,50.7826087 C53.3369433,50.5324089 56.3010034,50.2889713 59.2650634,50.0542279 C62.0924791,35.0045663 64.281597,25.5626643 65.8296095,21.4734918 C67.4244179,27.1952419 68.95184,33.518824 70.41094,40.4432719 C70.999634,43.302698 71.5630581,46.1824105 72.1002765,49.0853075 C75.2992525,48.8563603 78.5001004,48.6361071 81.7009484,48.4245483 C87.283714,21.2010735 90.8111983,5.87995968 92.2834008,1.58695652 L85.8807687,1.59661675 C85.7703304,3.66873461 85.0655823,7.80427611 83.7693325,14.0525084 Z M6.8567374e-13,15.34608 C3.61696785,12.2844422 6.47619368,10.4367033 8.57484657,9.71547054 C9.20425372,9.51859615 10.8565654,9.33516672 13.5317817,9.1651825 C13.734664,15.8877248 13.8328025,22.32696 13.826197,28.4972935 C13.7620296,39.802689 13.5185707,48.2836564 13.0948768,53.9565217 C17.1091166,53.5330016 21.1243001,53.1238869 25.1413708,52.7282173 C24.6101021,41.8425005 24.3355032,33.2923869 24.3194614,27.1268552 C24.3005887,22.3980269 24.4166562,16.342937 24.6648332,8.97791164 C26.86823,8.82329317 28.6771858,8.9452593 30.0935877,9.33516672 C32.3988975,10.0669635 35.0977048,11.7322333 38.1862348,14.282958 C37.8031175,10.0602409 37.4190565,5.82792037 37.0349954,1.58695652 C25.0970198,1.61480705 13.1581006,1.64553868 1.22012508,1.68011175 C0.813416721,6.22359001 0.40670836,10.779553 6.8567374e-13,15.34608 Z" id="Fill-5" fill="#FFFFFE"></path>
                <path d="M215.231962,126.58308 C216.205703,125.558688 216.871795,124.942873 216.871795,124.942873 C214.91473,124.942873 212.970124,124.609921 211.181737,124 C200.888455,140.41484 196.370529,147.567911 189.204526,147.567911 C188.221201,147.567911 187.382595,147.321389 186.666667,146.89906 C187.641366,148.486231 189.087601,149.6 191.186509,149.6 C198.352512,149.6 202.870439,142.446929 213.16468,126.032089 C213.832689,126.25995 214.527533,126.435756 215.231962,126.58308 Z M165.623552,93.6448371 C163.602725,95.522402 159.686998,100.528307 154.871795,116 C155.953167,115.787023 156.931598,115.528274 157.811088,115.223754 C164.448234,95.1487576 169.179487,95.0189159 169.179487,94.2361304 C169.179487,94.0539783 168.9846,93.6 166.750897,93.6 C166.36812,93.6 165.993337,93.6177484 165.623552,93.6448371 Z M114.397742,149.6 C115.472707,149.054195 118.307692,147.233868 118.307692,143.227388 C118.307692,140.526731 117.02346,138.14984 114.955461,136.8 C115.78957,138.045178 116.266345,139.563259 116.266345,141.202629 C116.266345,146.146171 111.948718,147.763045 111.948718,147.763045 C111.948718,147.763045 112.482745,148.84096 114.397742,149.6 Z M140.011106,124 C140.196084,123.51346 140.380093,123.025177 140.564103,122.517711 C134.466615,121.902125 126.683989,120.039673 121.487179,116 C125.899529,120.678801 133.513641,123.027793 140.011106,124 Z M173.260104,147.790544 C170.944837,147.790544 169.065751,147.313036 167.589744,146.411369 C169.187453,148.491063 171.722758,149.6 175.273549,149.6 C179.2576,149.6 182.519225,148.094015 185.076923,145.68986 C184.506382,144.964854 184.077016,144.10604 183.764484,143.2 C181.114292,146.005575 177.612183,147.790544 173.260104,147.790544 Z M210.512821,146.340422 C211.713835,148.463579 214.054683,149.6 217.443124,149.6 C223.221357,149.6 228.951587,145.871673 233.79894,141.326973 C233.814941,139.589845 234.022012,138.171781 234.358974,136.8 C229.050416,142.390522 222.304595,147.562517 215.496653,147.562517 C213.442881,147.562517 211.77878,147.140052 210.512821,146.340422 Z M289.199226,140 C288.834072,140 288.349946,140.678836 287.618725,141.339971 C286.529671,143.505698 283.560857,146.168824 278.411189,146.168824 C276.611963,146.168824 275.199854,145.729837 274.102564,145.03507 C275.262086,146.707822 277.2114,148 280.303763,148 C286.975359,148 290,143.526939 290,141.462108 C290,140.687686 289.73277,140 289.199226,140 Z M275.188406,123.549075 C275.497094,122.752309 275.692308,122.092531 275.692308,121.615403 C275.692308,121.072111 275.505749,120.8 274.85087,120.8 C273.355515,120.8 270.552326,124.152007 267.840493,127.865588 C267.093297,130.673373 266.065301,133.481157 264.944025,136.289873 C262.419713,142.811237 259.522283,146.07192 255.596856,146.07192 C255.392988,146.07192 255.205468,146.056078 255.025641,146.029985 C255.233355,147.264739 256.063253,148 257.585534,148 C261.51096,148 264.40839,144.739317 266.932702,138.217953 C268.053978,135.410168 269.081974,132.602384 269.830133,129.793668 C271.732262,127.187172 273.679589,124.765191 275.188406,123.549075 Z M259.794872,123.022557 C259.778233,121.653611 259.488515,120.8 258.752475,120.8 C253.709816,120.8 246.859355,146.07192 239.059481,146.07192 C238.510387,146.07192 238.002402,145.986186 237.538462,145.817514 C238.251011,147.33929 239.512655,148 241.083592,148 C248.389184,148 254.860857,125.835001 259.794872,123.022557 Z M170.769231,113.051162 C170.769231,110.658912 169.495639,108.993481 167.97582,108 C168.48903,108.842341 168.817334,109.85604 168.817334,111.059384 C168.817334,117.141574 160.748422,120.509977 152.678566,121.82018 C144.518145,149.704097 127.095409,154.008223 117.192524,154.008223 C111.219851,154.008223 106.850016,152.452538 104,150.146928 C106.582089,153.506668 111.577399,156 119.143479,156 C129.047306,156 146.469099,151.695874 154.630464,123.811957 C162.699376,122.501754 170.769231,119.133351 170.769231,113.051162 Z M253.274874,120.967791 C253.376368,120.198557 253.435897,119.474682 253.435897,118.815068 C253.435897,116.470508 252.712755,114.892348 251.034204,114.4 C251.287939,115.083239 251.417733,115.90256 251.417733,116.858905 C251.417733,119.798819 250.373519,123.839664 248.666667,128.8 C249.995844,125.970652 251.57095,123.302901 253.274874,120.967791 Z M282.310803,141.6 C282.276108,141.401487 282.255291,141.191685 282.255291,140.965889 C282.255291,139.960154 282.5077,138.588441 283.098389,137.033267 C284.616313,132.918128 288.410256,126.334281 288.410256,118.927218 C288.410256,116.721939 287.635681,115.112199 286.137707,114.4 C286.444761,115.127252 286.616503,115.98716 286.616503,116.980665 C286.616503,124.387728 282.822561,130.971575 281.304637,135.086714 C280.713947,136.640946 280.461538,138.012659 280.461538,139.019335 C280.461538,140.490775 281.250859,141.364796 282.310803,141.6 Z M268.200393,122.4 C269.075461,121.3469 269.985667,120.319486 270.923077,119.343443 C270.680506,116.915189 269.693221,115.159694 267.74359,114.4 C268.355683,115.491628 268.641327,116.900371 268.641327,118.559052 C268.641327,119.710941 268.421427,120.959644 268.200393,122.4 Z M132.592303,112.8 C130.833295,110.680605 129.835017,108.072628 129.835017,104.966634 C129.835017,96.073099 137.968387,88.7396345 151.989483,88.7396345 C167.507035,88.7396345 177.229187,97.8152092 187.979432,97.8152092 C194.523059,97.8152092 197.794872,94.5149143 197.794872,90.2063276 C197.794872,87.3276479 196.358044,85.3308705 194.471125,84 C195.283788,85.1384555 195.805048,86.5353507 195.805048,88.2538806 C195.805048,92.5634112 192.533234,95.8637061 185.989607,95.8637061 C175.239363,95.8637061 165.518173,86.7871881 150.00062,86.7871881 C135.978563,86.7871881 127.846154,94.1215959 127.846154,103.014187 C127.846154,107.152054 129.602277,110.413677 132.592303,112.8 Z M233.592613,117.6 C233.793091,118.129111 233.896306,118.700121 233.896306,119.277954 C233.896306,122.781973 226.275191,124.676248 226.275191,124.676248 C221.258296,129.317418 218.461538,135.000244 218.461538,138.693301 C218.461538,140.42095 219.376588,141.30475 220.620143,141.6 C220.556625,141.330085 220.513949,141.039707 220.513949,140.709379 C220.513949,137.016321 223.3117,131.333496 228.327602,126.692327 C228.327602,126.692327 235.948718,124.798051 235.948718,121.294031 C235.948718,119.744701 235.290716,118.209013 233.592613,117.6 Z M214.299573,116.904096 C214.299573,116.904096 215.083684,117.386017 216.58828,117.6 C216.780097,116.759611 216.871795,115.868928 216.871795,114.973671 C216.871795,112.041913 215.809782,109.057116 213.692308,108 C214.520396,109.391808 214.936781,111.247247 214.936781,113.081654 C214.936781,114.414936 214.75432,115.748219 214.299573,116.904096 Z M191.435897,135.450021 C191.435897,138.620112 192.156748,139.866431 193.579238,140 C193.418236,139.336001 193.327672,138.506722 193.327672,137.438174 C193.327672,137.438174 200.974359,125.670687 200.974359,118.105327 C200.974359,116.414098 200.03579,115.176427 198.706607,114.4 C198.943537,114.90929 199.082584,115.479118 199.082584,116.116211 C199.082584,123.681573 191.435897,135.450021 191.435897,135.450021 Z M183.908976,119.2 C180.530028,119.2 177.773252,122.763164 175.99457,126.325387 C174.927726,128.518175 173.948718,131.990167 173.948718,134.913258 C173.948718,137.294966 174.619384,139.271577 176.389832,140 C176.008294,139.119313 175.84177,138.039367 175.84177,136.858852 C175.84177,133.934822 176.819863,130.462829 177.886707,128.270981 C179.66539,124.707818 182.422166,121.144654 185.80203,121.144654 C185.963063,121.144654 186.125011,121.164393 186.286959,121.18225 C186.411393,120.789372 186.537658,120.402133 186.666667,120.022414 C185.687659,119.473512 184.799233,119.2 183.908976,119.2 Z M208.923077,123.574999 C208.356281,123.221591 207.833333,122.820455 207.333333,122.4 C207.726855,122.967046 208.166305,123.504545 208.660033,124 C208.747715,123.859091 208.83644,123.715909 208.923077,123.574999 Z" id="Fill-6" fill="#1A1919"></path>
                <path d="M179.532675,131.948964 C178.199833,133.645119 176.600056,134.717391 174.73426,134.717391 C171.712968,134.717391 170.647059,132.395514 170.647059,129.447915 C170.647059,126.590362 171.624294,123.196213 172.690202,121.052588 C174.46824,117.570232 177.221683,114.086957 180.598583,114.086957 C181.487145,114.086957 182.375706,114.354336 183.352941,114.890931 C181.22021,121.052588 179.621349,129.090491 179.532675,131.948964 Z M284.166503,134.028535 C283.426359,134.028535 282.222313,136.810231 279.537025,136.810231 C278.055783,136.810231 276.85269,135.882999 276.85269,134.122021 C276.85269,133.101303 277.13084,131.710455 277.777633,130.134543 C279.444627,125.961998 283.611157,119.286309 283.611157,111.775921 C283.611157,108.715674 282.037516,106.768678 278.981679,106.768678 C274.4446,106.768678 269.722723,111.49737 265.834342,116.874743 C266.019141,115.483895 266.204891,114.279066 266.204891,113.166769 C266.204891,109.271822 264.816048,106.768678 261.389662,106.768678 C256.112439,106.768678 249.446371,114.279066 245.279841,123.458853 C246.945882,118.45161 247.964176,114.371598 247.964176,111.404838 C247.964176,108.530609 246.945882,106.768678 244.446344,106.768678 C240.557964,106.768678 236.946781,109.271822 236.113284,115.113765 C235.507452,119.269139 234.794931,122.293136 234.100509,124.688485 C229.590102,130.084937 223.353643,136.439147 218.984216,136.439147 C217.318175,136.439147 215.929332,135.605402 215.929332,133.472387 C215.929332,129.855991 218.61462,124.292599 223.429849,119.749926 C223.429849,119.749926 230.743662,117.895461 230.743662,114.465085 C230.743662,112.517135 229.725367,110.570138 226.855281,110.570138 C224.077594,110.570138 220.929359,113.907983 215.744534,113.907983 C213.244997,113.907983 211.948553,113.074237 211.948553,113.074237 C212.411501,111.868454 212.596298,110.477606 212.596298,109.086758 C212.596298,105.285297 210.929305,101.391304 207.596272,101.391304 C202.874395,101.391304 200.374857,106.397594 200.374857,110.570138 C200.374857,114.030087 202.473364,116.766948 205.51396,118.516478 C200.204348,126.452325 194.104106,135.141786 190.653906,135.141786 C188.986914,135.141786 188.153417,133.936003 188.153417,130.598158 C188.153417,130.598158 196.116881,118.915226 196.116881,111.404838 C196.116881,108.34459 192.876246,106.768678 189.82041,106.768678 C188.617318,106.768678 187.413272,107.973507 186.301626,109.920503 C185.006134,108.34459 182.506597,106.768678 180.098506,106.768678 C168.802962,106.768678 161.117647,122.624154 161.117647,130.969242 C161.117647,138.47963 164.173483,142.652174 170.654753,142.652174 C174.913682,142.652174 178.340066,140.704224 180.932003,137.644931 C181.7655,140.334094 183.43154,142.652174 186.487376,142.652174 C193.608771,142.652174 198.100127,135.704612 208.330701,119.761373 C210.108193,120.352817 212.039999,120.677157 213.985142,120.677157 C213.985142,120.677157 204.633787,129.114778 204.633787,135.605402 C204.633787,140.148075 207.411474,142.652174 212.596298,142.652174 C219.487171,142.652174 226.31327,137.642069 231.685751,132.226538 C231.331396,133.609755 231.113257,135.032083 231.113257,136.810231 C231.113257,140.982775 232.780251,142.652174 235.187389,142.652174 C242.779352,142.652174 249.446371,116.78221 254.353046,116.78221 C255.094144,116.78221 255.372293,117.709443 255.372293,119.193777 C255.372293,121.789454 254.445445,126.05453 253.890099,129.393329 C251.112412,133.657451 249.446371,137.552398 249.446371,139.96301 C249.446371,141.63241 250.278915,142.652174 252.03926,142.652174 C255.927641,142.652174 258.796774,139.313376 261.297263,132.637687 C262.407957,129.763459 263.427204,126.88923 264.16735,124.015002 C266.852637,120.212587 269.629371,116.78221 271.111566,116.78221 C271.760264,116.78221 271.945063,117.060762 271.945063,117.61691 C271.945063,120.120055 266.945036,127.445378 266.945036,134.307086 C266.945036,137.644931 268.796828,142.652174 274.9085,142.652174 C281.852717,142.652174 285,137.829995 285,135.605402 C285,134.770702 284.72185,134.028535 284.166503,134.028535 Z M165.346613,107.168645 C165.346613,103.067458 161.376539,101.153759 159.068025,101.153759 C158.23677,101.153759 157.129064,101.426608 157.129064,102.065133 C157.129064,102.70272 158.514172,103.249357 158.514172,105.801583 C158.514172,109.356132 155.743956,111.633632 150.479974,112.727843 C157.221214,89.8525226 162.114694,89.7615724 162.114694,88.941148 C162.114694,88.7592476 161.930392,88.3026231 159.80618,88.3026231 C146.971604,88.3026231 141.245919,105.527795 137.645398,112.727843 C129.6112,110.905094 124.162918,106.34822 124.162918,99.0572212 C124.162918,90.2172601 132.197115,82.9262613 146.048198,82.9262613 C161.376539,82.9262613 170.979196,91.94906 181.598359,91.94906 C188.062198,91.94906 191.294118,88.6682975 191.294118,84.3842735 C191.294118,78.0955995 184.460727,76 181.044506,76 C179.567248,76 179.475097,76.3647375 179.475097,76.5466374 C179.475097,77.0932748 180.397553,77.3670623 180.397553,78.5522246 C180.397553,79.9192869 179.105545,81.0125617 174.580668,81.0125617 C166.731721,81.0125617 156.48211,77.6399122 145.124793,77.6399122 C128.226091,77.6399122 111.512642,85.0218609 111.512642,99.6038582 C111.512642,112.545006 125.918529,117.284718 135.797637,118.377993 C128.411343,140.706677 120.746697,144.534076 113.914256,144.534076 C108.465974,144.534076 107.265167,142.073738 107.265167,142.073738 C107.265167,142.073738 111.420492,140.523839 111.420492,135.785065 C111.420492,131.774828 108.465974,128.494066 104.310649,128.494066 C99.3240696,128.494066 96,133.05094 96,137.516864 C96,143.257963 101.632583,149 113.359453,149 C123.332613,149 140.877317,144.807863 149.094866,117.649456 C157.221214,116.373344 165.346613,113.091643 165.346613,107.168645 Z" id="Fill-7" fill="#FFFFFE"></path>
            </g>
        </g>
    </g>
</svg>